<svg id="Слой_1" data-name="Слой 1" xmlns="http://www.w3.org/2000/svg" viewBox="0 0 1190.55 728.78"><defs><style>.cls-1,.cls-3,.cls-4,.cls-5,.cls-7{fill:none;}.cls-1,.cls-3,.cls-4{stroke:#000;}.cls-1,.cls-3,.cls-7{stroke-linecap:round;stroke-linejoin:round;}.cls-1,.cls-4,.cls-5{stroke-width:3.5px;}.cls-2,.cls-8{fill:#88d3ed;}.cls-3,.cls-7{stroke-width:7px;}.cls-4,.cls-5,.cls-8{stroke-miterlimit:10;}.cls-5,.cls-7,.cls-8{stroke:#88d3ed;}.cls-6{fill:#29abe2;}</style></defs><title>last 4</title><path d="M514.49,296.81v-9.07h-5.65v-3.12l5.82-.22.54-6.5h3.47v6.5h9.68v3.34h-9.68v9.08c0,3.52,1.25,5.23,5,5.23a13.21,13.21,0,0,0,4.67-.87l.85,3.05a19,19,0,0,1-6.49,1.2C516.53,305.43,514.49,302,514.49,296.81Z"/><path d="M533.75,294.7c0-6.87,4.82-10.8,10.22-10.8s10.22,3.93,10.22,10.8-4.81,10.73-10.22,10.73S533.75,301.5,533.75,294.7Zm16.16,0c0-4.42-2.31-7.36-5.94-7.36S538,290.28,538,294.7,540.34,302,544,302,549.91,299.08,549.91,294.7Z"/><path d="M562.33,284.4h3.47l.37,4.76h.1a10.48,10.48,0,0,1,8.94-5.26,8.52,8.52,0,0,1,4,.84l-.91,3.55a10.54,10.54,0,0,0-3.76-.65c-2.94,0-5.77,1.5-8,5.64v11.64h-4.19Z"/><path d="M587.52,284.4H591l.37,4.76h.1a10.48,10.48,0,0,1,8.94-5.26,8.52,8.52,0,0,1,4,.84l-.91,3.55a10.54,10.54,0,0,0-3.76-.65c-2.94,0-5.77,1.5-8,5.64v11.64h-4.19Z"/><path d="M609.66,294.63a10.36,10.36,0,0,1,10.53-10.73c6,0,9.44,4,9.44,9.68a14.53,14.53,0,0,1-.19,2.28H612.56v-3.07h14.28l-.91,1c0-4.44-2.15-6.67-5.63-6.67s-6.54,2.65-6.54,7.49c0,5,3.17,7.52,7.57,7.52a11.19,11.19,0,0,0,6-1.8l1.46,2.64a14.48,14.48,0,0,1-8,2.44C614.58,305.43,609.66,301.46,609.66,294.63Z"/><path d="M635.82,284.4h3.42l.33,3.28h.17c2-2.11,4.39-3.78,7.56-3.78,4.79,0,7,3,7,8.29v12.73H650.1V292.74c0-3.58-1.21-5.24-4.25-5.24-2.23,0-3.73,1.1-5.85,3.27v14.15h-4.18Z"/><path d="M665.63,296.81v-9.07H660v-3.12l5.82-.22.55-6.5h3.47v6.5h9.68v3.34h-9.68v9.08c0,3.52,1.25,5.23,5,5.23a13.17,13.17,0,0,0,4.67-.87l.85,3.05a18.87,18.87,0,0,1-6.49,1.2C667.68,305.43,665.63,302,665.63,296.81Z"/><path d="M428.31,643.65h3.09l.3,2.24h.12a9.52,9.52,0,0,1,6.19-2.7c4.9,0,7.61,3.71,7.61,9.47,0,6.32-3.95,10-8.34,10a8.25,8.25,0,0,1-5.28-2.3h-.09l.18,3.38v6h-3.78Zm13.44,9c0-3.88-1.42-6.32-4.76-6.32a7,7,0,0,0-4.9,2.48v8.78a7,7,0,0,0,4.47,1.91C439.52,659.52,441.75,657.06,441.75,652.67Z"/><path d="M450.23,652.9a9.38,9.38,0,0,1,9.53-9.71c5.44,0,8.54,3.58,8.54,8.77a13.13,13.13,0,0,1-.17,2H452.86v-2.77h12.91l-.82.92c0-4-1.94-6-5.09-6S454,648.52,454,652.9c0,4.56,2.86,6.81,6.85,6.81a10.15,10.15,0,0,0,5.42-1.63l1.32,2.39a13.05,13.05,0,0,1-7.22,2.2C454.68,662.67,450.23,659.09,450.23,652.9Z"/><path d="M473,652.9a9.38,9.38,0,0,1,9.53-9.71c5.44,0,8.54,3.58,8.54,8.77a13.13,13.13,0,0,1-.17,2H475.66v-2.77h12.91l-.82.92c0-4-1.94-6-5.09-6s-5.91,2.39-5.91,6.77c0,4.56,2.86,6.81,6.85,6.81a10.15,10.15,0,0,0,5.42-1.63l1.32,2.39a13.05,13.05,0,0,1-7.22,2.2C477.48,662.67,473,659.09,473,652.9Z"/><path d="M498.6,643.65h3.13l.34,4.31h.09a9.46,9.46,0,0,1,8.09-4.77,7.89,7.89,0,0,1,3.64.76l-.83,3.22a9.46,9.46,0,0,0-3.4-.59c-2.66,0-5.22,1.35-7.28,5.1v10.54H498.6Z"/><path d="M541.5,659.78l1.68-2.45a13.47,13.47,0,0,0,7.91,2.44c2.85,0,4.21-1.14,4.21-2.53s-.77-2.15-5.44-3.11c-4.91-1-7.21-2.71-7.21-5.52,0-3.11,2.79-5.42,7.93-5.42a14.16,14.16,0,0,1,7.63,2.42L556.44,648a11.2,11.2,0,0,0-6.19-1.9c-2.76,0-3.83,1.09-3.83,2.36,0,1.45,1.48,2,5.13,2.8,6,1.32,7.55,2.88,7.55,5.78,0,3.11-3,5.66-8.49,5.66A16.49,16.49,0,0,1,541.5,659.78Z"/><path d="M564.23,652.9a9.38,9.38,0,0,1,9.53-9.71c5.44,0,8.54,3.58,8.54,8.77a13.13,13.13,0,0,1-.17,2H566.85v-2.77h12.92l-.82.92c0-4-1.94-6-5.09-6s-5.92,2.39-5.92,6.77c0,4.56,2.86,6.81,6.85,6.81a10.16,10.16,0,0,0,5.43-1.63l1.32,2.39a13.08,13.08,0,0,1-7.22,2.2C568.68,662.67,564.23,659.09,564.23,652.9Z"/><path d="M587.1,659.78l1.68-2.45a13.47,13.47,0,0,0,7.91,2.44c2.85,0,4.21-1.14,4.21-2.53s-.77-2.15-5.44-3.11c-4.91-1-7.21-2.71-7.21-5.52,0-3.11,2.79-5.42,7.93-5.42a14.16,14.16,0,0,1,7.63,2.42L602,648a11.2,11.2,0,0,0-6.19-1.9c-2.76,0-3.83,1.09-3.83,2.36,0,1.45,1.48,2,5.13,2.8,6,1.32,7.55,2.88,7.55,5.78,0,3.11-3,5.66-8.49,5.66A16.49,16.49,0,0,1,587.1,659.78Z"/><path d="M609.9,659.78l1.68-2.45a13.47,13.47,0,0,0,7.91,2.44c2.85,0,4.21-1.14,4.21-2.53s-.77-2.15-5.44-3.11c-4.91-1-7.21-2.71-7.21-5.52,0-3.11,2.79-5.42,7.93-5.42a14.16,14.16,0,0,1,7.63,2.42L624.84,648a11.2,11.2,0,0,0-6.19-1.9c-2.76,0-3.83,1.09-3.83,2.36,0,1.45,1.48,2,5.13,2.8,6,1.32,7.55,2.88,7.55,5.78,0,3.11-3,5.66-8.49,5.66A16.49,16.49,0,0,1,609.9,659.78Z"/><path d="M641.78,646.67h-8.3v-3h12.09v18.57h-3.79Zm-1.23-9.34a2.82,2.82,0,1,1,2.82,2.69A2.65,2.65,0,0,1,640.55,637.33Z"/><path d="M655.13,653c0-6.21,4.35-9.77,9.25-9.77s9.24,3.56,9.24,9.77-4.35,9.71-9.24,9.71S655.13,659.12,655.13,653Zm14.62,0c0-4-2.09-6.65-5.37-6.65S659,649,659,653s2.09,6.6,5.38,6.6S669.75,656.93,669.75,653Z"/><path d="M679.1,643.65h3.1l.3,3h.15c1.86-1.91,4-3.42,6.84-3.42,4.34,0,6.32,2.67,6.32,7.51v11.52H692v-11c0-3.24-1.09-4.73-3.85-4.73-2,0-3.38,1-5.29,2.95v12.81H679.1Z"/><path d="M514.49,78.94V69.88h-5.65V66.76l5.82-.22L515.2,60h3.47v6.51h9.68v3.34h-9.68V79c0,3.53,1.25,5.24,5,5.24a13.21,13.21,0,0,0,4.67-.88l.85,3.06a19,19,0,0,1-6.49,1.19C516.53,87.56,514.49,84.09,514.49,78.94Z"/><path d="M537.14,66.54h3.47L541,71.3h.1A10.49,10.49,0,0,1,550,66a8.64,8.64,0,0,1,4,.84l-.91,3.56a10.33,10.33,0,0,0-3.76-.66c-2.94,0-5.77,1.5-8,5.64V87.06h-4.19Z"/><path d="M559.72,81.64c0-4.6,4.18-6.87,14.54-7.64-.15-2.54-1.51-4.58-5.16-4.58a14.4,14.4,0,0,0-6.94,2.31l-1.6-2.79A18.5,18.5,0,0,1,569.84,66c5.66,0,8.6,3.25,8.6,8.67V87.06H575l-.33-2.67h-.13a13.47,13.47,0,0,1-7.86,3.17C562.74,87.56,559.72,85.25,559.72,81.64Zm14.54-.16V76.67c-8.06.58-10.45,2.2-10.45,4.65,0,2.06,1.85,2.92,4,2.92S572.13,83.21,574.26,81.48Z"/><path d="M585,76.83C585,70,590.29,66,596.53,66a10.56,10.56,0,0,1,7.52,3l-2,2.64a8.19,8.19,0,0,0-5.33-2.15c-4.41,0-7.45,2.94-7.45,7.36a6.93,6.93,0,0,0,7.33,7.29,9.65,9.65,0,0,0,6.09-2.41l1.8,2.69a12.51,12.51,0,0,1-8.22,3.16C589.83,87.56,585,83.63,585,76.83Z"/><path d="M611,57.28h4.18V76.64h.17l10.1-10.1h4.71l-15,15v5.47H611Zm8.06,19.3,2.48-2.67,9.6,13.15h-4.6Z"/><path d="M634.85,76.76A10.36,10.36,0,0,1,645.38,66c6,0,9.44,4,9.44,9.69a14.5,14.5,0,0,1-.19,2.27H637.75V74.93H652l-.91,1c0-4.45-2.15-6.68-5.63-6.68S639,71.92,639,76.76c0,5,3.16,7.53,7.57,7.53a11.19,11.19,0,0,0,6-1.81L654,85.12a14.45,14.45,0,0,1-8,2.44C639.77,87.56,634.85,83.6,634.85,76.76Z"/><path d="M663.1,66.54h3.46l.37,4.76h.1A10.49,10.49,0,0,1,676,66a8.71,8.71,0,0,1,4,.84l-.92,3.56a10.27,10.27,0,0,0-3.75-.66c-3,0-5.78,1.5-8.05,5.64V87.06H663.1Z"/><rect class="cls-1" x="434.21" y="26.42" width="324.14" height="93.98"/><path class="cls-2" d="M130.61,522.49c0-6.69,4.4-10.8,9.15-10.8a8.21,8.21,0,0,1,5.9,2.51h.1l-.2-3.61v-7.65h4.19v29.77h-3.42l-.34-2.55h-.13a9.49,9.49,0,0,1-6.44,3.05C134.12,533.21,130.61,529.29,130.61,522.49ZM145.56,527v-9.7a6.86,6.86,0,0,0-4.85-2.1c-3.2,0-5.82,2.77-5.82,7.26,0,4.66,2.07,7.29,5.5,7.29A6.79,6.79,0,0,0,145.56,527Z"/><path class="cls-2" d="M166.25,515.53h-9.18v-3.34h13.36v20.52h-4.18Zm-1.36-10.32a3.12,3.12,0,1,1,3.11,3A2.9,2.9,0,0,1,164.89,505.21Z"/><path class="cls-2" d="M181.4,530l1.86-2.71A14.86,14.86,0,0,0,192,530c3.15,0,4.65-1.26,4.65-2.8s-.85-2.37-6-3.43c-5.42-1.13-8-3-8-6.11,0-3.43,3.09-6,8.77-6a15.76,15.76,0,0,1,8.43,2.66l-2,2.61a12.42,12.42,0,0,0-6.84-2.1c-3,0-4.23,1.21-4.23,2.61,0,1.61,1.64,2.24,5.66,3.1,6.68,1.46,8.36,3.18,8.36,6.39,0,3.44-3.33,6.25-9.39,6.25A18.26,18.26,0,0,1,181.4,530Z"/><path class="cls-2" d="M207.89,502.94h4.18V522.3h.17l10.11-10.11h4.7l-15,15.06v5.46h-4.18Zm8.06,19.3,2.48-2.68,9.6,13.15h-4.6Z"/><path class="cls-2" d="M257.94,529.16h6.73v-20.4h-6.73v-3.55h17.68v3.55h-6.73v20.4h6.73v3.55H257.94Z"/><path class="cls-2" d="M281.28,518.83c0-9,4.4-14.12,10.69-14.12s10.69,5.16,10.69,14.12c0,9.12-4.4,14.38-10.69,14.38S281.28,528,281.28,518.83Zm17,0c0-6.6-2.52-10.44-6.34-10.44s-6.34,3.84-6.34,10.44c0,6.76,2.52,10.7,6.34,10.7S298.31,525.59,298.31,518.83Z"/><path d="M143,291.14a10.36,10.36,0,0,1,10.53-10.73c6,0,9.45,3.95,9.45,9.68a14.11,14.11,0,0,1-.2,2.27H145.9V289.3h14.28l-.91,1c0-4.44-2.15-6.67-5.63-6.67s-6.53,2.65-6.53,7.49c0,5,3.16,7.52,7.57,7.52a11.11,11.11,0,0,0,6-1.81l1.47,2.65a14.51,14.51,0,0,1-8,2.43C147.92,301.93,143,298,143,291.14Z"/><path d="M169.16,280.91h3.42l.33,3.27h.17c2-2.1,4.39-3.77,7.56-3.77,4.8,0,7,2.95,7,8.29v12.73h-4.18V289.25c0-3.58-1.2-5.24-4.25-5.24-2.23,0-3.73,1.1-5.85,3.27v14.15h-4.18Z"/><path d="M193.47,305.11c0-1.65,1.16-3.23,3.33-4.44v-.17a3.77,3.77,0,0,1-2.1-3.4,5,5,0,0,1,2.45-3.85v-.17a6.46,6.46,0,0,1-2.58-5.3c0-4.59,3.83-7.37,8.26-7.37a9,9,0,0,1,3.12.5h8.45v3.26h-5a5.76,5.76,0,0,1,1.51,3.76c0,4.47-3.55,7-8.07,7a9.08,9.08,0,0,1-3.3-.67,2.54,2.54,0,0,0-1.42,2.14c0,1.47,1.44,2.15,4.06,2.15h4.39c5.3,0,7.95,1.39,7.95,4.91,0,4-4.52,7.24-11.62,7.24C197.07,310.7,193.47,308.76,193.47,305.11Zm17-1c0-1.77-1.48-2.25-4.4-2.25h-3.63a11.67,11.67,0,0,1-3.13-.32c-1.7.95-2.31,2-2.31,3.05,0,2,2.24,3.19,6.32,3.19C207.69,307.81,210.46,306.07,210.46,304.14Zm-3.33-16.36a4.3,4.3,0,1,0-4.3,4.47A4.22,4.22,0,0,0,207.13,287.78Z"/><path d="M228.69,284.25h-9.17v-3.34h13.35v20.52h-4.18Zm-1.36-10.32a3.12,3.12,0,1,1,3.11,3A2.9,2.9,0,0,1,227.33,273.93Z"/><path d="M244.73,280.91h3.42l.33,3.27h.17c2.06-2.1,4.39-3.77,7.56-3.77,4.8,0,7,2.95,7,8.29v12.73H259V289.25c0-3.58-1.2-5.24-4.24-5.24-2.24,0-3.74,1.1-5.86,3.27v14.15h-4.18Z"/><path d="M269,291.14a10.35,10.35,0,0,1,10.52-10.73c6,0,9.45,3.95,9.45,9.68a15.57,15.57,0,0,1-.19,2.27H271.85V289.3h14.28l-.91,1c0-4.44-2.15-6.67-5.62-6.67s-6.54,2.65-6.54,7.49c0,5,3.16,7.52,7.57,7.52a11.08,11.08,0,0,0,6-1.81l1.47,2.65a14.51,14.51,0,0,1-8,2.43C273.87,301.93,269,298,269,291.14Z"/><circle class="cls-3" cx="216.42" cy="291.27" r="104.13"/><line class="cls-4" x1="553.14" y1="130.95" x2="553.14" y2="196.47"/><path d="M553.14,120.39c-1.85,5-5,11.14-8.32,15l8.32-3,8.31,3C558.12,131.53,555,125.36,553.14,120.39Z"/><line class="cls-4" x1="639.42" y1="120.39" x2="639.42" y2="185.91"/><path d="M639.42,196.47c-1.84-5-5-11.13-8.32-14.95l8.32,3,8.32-3C644.41,185.34,641.26,191.5,639.42,196.47Z"/><line class="cls-4" x1="584.78" y1="395.11" x2="584.78" y2="597.73"/><path d="M584.78,608.29c-1.85-5-5-11.13-8.32-15l8.32,3,8.32-3C589.76,597.16,586.62,603.32,584.78,608.29Z"/><line class="cls-2" x1="320.55" y1="521.19" x2="540.25" y2="608.29"/><line class="cls-5" x1="330.37" y1="525.08" x2="540.25" y2="608.29"/><path class="cls-2" d="M320.55,521.19c3.94,3.54,8.51,8.74,10.84,13.24l.27-8.84,5.86-6.63C332.74,520.65,325.85,521.3,320.55,521.19Z"/><line class="cls-6" x1="509.87" y1="348.69" x2="303.41" y2="463.93"/><line class="cls-4" x1="500.65" y1="353.83" x2="303.41" y2="463.93"/><path d="M509.87,348.69c-5.23.81-12.15,1.07-17.11,0l6.68,5.8,1.43,8.73C502.58,358.47,506.43,352.72,509.87,348.69Z"/><line x1="320.55" y1="289.9" x2="492.14" y2="292.65"/><line class="cls-4" x1="320.55" y1="289.9" x2="481.59" y2="292.48"/><path d="M492.14,292.65c-5,1.76-11.21,4.81-15.08,8.08l3.14-8.27-2.87-8.37C481.09,287.48,487.21,290.73,492.14,292.65Z"/><line class="cls-2" x1="316.94" y1="493.91" x2="771.05" y2="493.67"/><line class="cls-5" x1="327.49" y1="493.9" x2="771.05" y2="493.67"/><path class="cls-2" d="M316.94,493.91c5,1.84,11.13,5,14.95,8.31l-3-8.32,3-8.32C328.06,488.91,321.9,492.06,316.94,493.91Z"/><line x1="682.71" y1="349.37" x2="818.66" y2="446.92"/><line class="cls-4" x1="682.71" y1="349.37" x2="810.08" y2="440.76"/><path d="M818.66,446.92c-5.11-1.4-11.95-2.44-17-2l7.3-5,2.4-8.52C812.52,436.38,815.7,442.53,818.66,446.92Z"/><circle class="cls-1" cx="596.28" cy="291.27" r="104.13"/><circle class="cls-7" cx="216.42" cy="521.19" r="104.13"/><rect class="cls-1" x="400.45" y="608.29" width="324.14" height="93.98"/><rect class="cls-1" x="771.05" y="446.92" width="324.14" height="93.98"/><path d="M401,280.09h4.42V269.27h-3.49v-1.56a11.28,11.28,0,0,0,4.12-1.22h1.81v13.6h3.93v2H401Z"/><path d="M530.94,165.51c5.07-4.44,8-7.15,8-9.66,0-1.71-1-2.85-3.17-2.85a5.22,5.22,0,0,0-3.59,1.79l-1.37-1.36a7,7,0,0,1,5.27-2.4c3.17,0,5.2,1.87,5.2,4.7s-2.88,5.74-6.8,9.27c1-.08,2-.14,2.89-.14h4.75v2.07H530.94Z"/><path d="M648.89,163.24l1.19-1.57a6.21,6.21,0,0,0,4.3,1.77c2,0,3.52-1,3.52-2.59s-1.44-2.87-5.41-2.87v-1.81c3.53,0,4.88-1.16,4.88-2.7,0-1.39-1.2-2.25-3-2.25a5.72,5.72,0,0,0-3.7,1.51l-1.27-1.51a7.71,7.71,0,0,1,5.07-2c3.06,0,5.32,1.47,5.32,4,0,1.82-1.33,3-3.24,3.66v.1c2,.45,3.77,1.8,3.77,3.92,0,2.8-2.64,4.47-5.79,4.47A7.65,7.65,0,0,1,648.89,163.24Z"/><path d="M603.89,538.58c0-.9.08-2,.12-2.94h-.11c-.52.79-1.1,1.58-1.62,2.38l-3.73,4.79h9.93v1.93H596V543.1l7.45-9.81h2.74v15.6h-2.28Z"/><path d="M397.41,385.18c0-6.15,3.17-8.62,6.58-8.62a6.5,6.5,0,0,1,4.52,1.71l-1.33,1.51a4.53,4.53,0,0,0-3-1.22c-2.41,0-4.49,1.68-4.49,6.62,0,3.85,1.46,5.69,3.77,5.69a3,3,0,0,0,3.05-3.19,2.74,2.74,0,0,0-3.05-3,5,5,0,0,0-3.8,2.07l-.1-1.79a6.42,6.42,0,0,1,4.37-2.06c2.85,0,4.86,1.59,4.86,4.82a5.09,5.09,0,0,1-5.31,5.07C400.12,392.75,397.41,390.32,397.41,385.18Z"/><path class="cls-8" d="M443,556l1.16-1.59a6.07,6.07,0,0,0,4.22,1.73c2.07,0,3.7-1.24,3.7-3.27s-1.44-3.14-3.57-3.14a5.41,5.41,0,0,0-3,.89l-1.22-.77.49-7.61h9v2.09h-6.89l-.37,4.17a6.31,6.31,0,0,1,2.67-.57c3,0,5.36,1.52,5.36,4.88s-2.82,5.33-5.87,5.33A7.91,7.91,0,0,1,443,556Z"/><path d="M798.82,482.28h3.09l.31,2.24h.12a9.5,9.5,0,0,1,6.18-2.69c4.91,0,7.62,3.7,7.62,9.46,0,6.32-3.95,10-8.34,10a8.25,8.25,0,0,1-5.29-2.3h-.09l.19,3.38v6.05h-3.79Zm13.44,9c0-3.89-1.41-6.33-4.76-6.33a7,7,0,0,0-4.89,2.48v8.79a7,7,0,0,0,4.46,1.9C810,498.15,812.26,495.69,812.26,491.31Z"/><path d="M820.75,491.53a9.36,9.36,0,0,1,9.52-9.7c5.45,0,8.55,3.57,8.55,8.76a14.49,14.49,0,0,1-.17,2.05H823.37v-2.77h12.92l-.82.92c0-4-2-6-5.1-6s-5.91,2.4-5.91,6.77c0,4.56,2.86,6.81,6.85,6.81a10.13,10.13,0,0,0,5.42-1.63l1.33,2.39a13.11,13.11,0,0,1-7.23,2.2C825.2,501.3,820.75,497.72,820.75,491.53Z"/><path d="M843.55,491.53a9.36,9.36,0,0,1,9.52-9.7c5.45,0,8.55,3.57,8.55,8.76a14.49,14.49,0,0,1-.17,2.05H846.17v-2.77h12.92l-.82.92c0-4-1.95-6-5.1-6s-5.91,2.4-5.91,6.77c0,4.56,2.86,6.81,6.85,6.81a10.13,10.13,0,0,0,5.42-1.63l1.33,2.39a13.11,13.11,0,0,1-7.23,2.2C848,501.3,843.55,497.72,843.55,491.53Z"/><path d="M869.11,482.28h3.13l.34,4.31h.09a9.47,9.47,0,0,1,8.09-4.76,7.73,7.73,0,0,1,3.64.76l-.83,3.21a9.46,9.46,0,0,0-3.4-.59c-2.66,0-5.22,1.35-7.27,5.1v10.54h-3.79Z"/><path d="M912,498.41,913.7,496a13.42,13.42,0,0,0,7.91,2.44c2.84,0,4.21-1.14,4.21-2.53s-.78-2.15-5.45-3.11c-4.9-1-7.2-2.71-7.2-5.52,0-3.11,2.79-5.41,7.93-5.41a14.19,14.19,0,0,1,7.63,2.41L927,486.6a11.2,11.2,0,0,0-6.18-1.9c-2.77,0-3.83,1.09-3.83,2.36,0,1.45,1.48,2,5.12,2.8,6,1.32,7.56,2.88,7.56,5.78,0,3.11-3,5.66-8.49,5.66A16.53,16.53,0,0,1,912,498.41Z"/><path d="M934.75,491.53a9.36,9.36,0,0,1,9.52-9.7c5.45,0,8.55,3.57,8.55,8.76a13,13,0,0,1-.18,2.05H937.37v-2.77h12.92l-.82.92c0-4-2-6-5.1-6s-5.91,2.4-5.91,6.77c0,4.56,2.86,6.81,6.85,6.81a10.15,10.15,0,0,0,5.42-1.63l1.33,2.39a13.11,13.11,0,0,1-7.23,2.2C939.2,501.3,934.75,497.72,934.75,491.53Z"/><path d="M957.61,498.41,959.3,496a13.42,13.42,0,0,0,7.91,2.44c2.84,0,4.21-1.14,4.21-2.53s-.78-2.15-5.45-3.11c-4.9-1-7.2-2.71-7.2-5.52,0-3.11,2.79-5.41,7.93-5.41a14.19,14.19,0,0,1,7.63,2.41l-1.78,2.36a11.2,11.2,0,0,0-6.18-1.9c-2.77,0-3.83,1.09-3.83,2.36,0,1.45,1.48,2,5.12,2.8,6,1.32,7.56,2.88,7.56,5.78,0,3.11-3,5.66-8.49,5.66A16.53,16.53,0,0,1,957.61,498.41Z"/><path d="M980.41,498.41,982.1,496A13.42,13.42,0,0,0,990,498.4c2.84,0,4.21-1.14,4.21-2.53s-.78-2.15-5.45-3.11c-4.9-1-7.2-2.71-7.2-5.52,0-3.11,2.79-5.41,7.93-5.41a14.19,14.19,0,0,1,7.63,2.41l-1.78,2.36a11.2,11.2,0,0,0-6.18-1.9c-2.77,0-3.83,1.09-3.83,2.36,0,1.45,1.48,2,5.12,2.8,6,1.32,7.56,2.88,7.56,5.78,0,3.11-3,5.66-8.49,5.66A16.53,16.53,0,0,1,980.41,498.41Z"/><path d="M1012.3,485.3H1004v-3h12.08v18.57h-3.78Zm-1.24-9.34a2.82,2.82,0,0,1,5.64,0,2.82,2.82,0,0,1-5.64,0Z"/><path d="M1025.64,491.6c0-6.22,4.36-9.77,9.25-9.77s9.24,3.55,9.24,9.77-4.35,9.7-9.24,9.7S1025.64,497.75,1025.64,491.6Zm14.62,0c0-4-2.09-6.66-5.37-6.66s-5.37,2.66-5.37,6.66,2.08,6.59,5.37,6.59S1040.26,495.56,1040.26,491.6Z"/><path d="M1049.62,482.28h3.09l.3,3h.16c1.86-1.91,4-3.41,6.83-3.41,4.35,0,6.32,2.66,6.32,7.5v11.52h-3.78v-11c0-3.24-1.09-4.74-3.84-4.74-2,0-3.38,1-5.3,3v12.81h-3.78Z"/></svg>