<svg xmlns="http://www.w3.org/2000/svg" viewBox="0 0 1151.17 331.92"><defs><style>.cls-1{fill:#88d3ed;}.cls-2{fill:#91e599;}.cls-3{fill:#e2a69a;}.cls-4,.cls-5,.cls-6,.cls-7{fill:none;stroke:#000;stroke-miterlimit:10;}.cls-4{stroke-width:4px;}.cls-5,.cls-6{stroke-width:2px;}.cls-6{stroke-dasharray:12.21 12.21;}.cls-7{stroke-width:3px;}.cls-8{fill:#fff;}</style></defs><title>file 1 firts pic</title><g id="Слой_3" data-name="Слой 3"><rect class="cls-1" x="167.79" y="109.77" width="373.31" height="96.15"/><rect class="cls-2" x="541.79" y="110.06" width="249.42" height="96.15"/><rect class="cls-3" x="791.68" y="111.3" width="190.67" height="96.15"/><rect class="cls-4" x="167.81" y="110.51" width="814.68" height="97.15"/><line class="cls-4" x1="541.26" y1="208.53" x2="541.26" y2="111.38"/><line class="cls-4" x1="791.88" y1="207.66" x2="791.88" y2="110.51"/><polyline class="cls-5" points="421.28 116.77 421.28 110.77 421.28 116.77"/><line class="cls-6" x1="421.28" y1="128.98" x2="421.28" y2="196.1"/><polyline class="cls-5" points="421.28 202.21 421.28 208.21 421.28 202.21"/><line class="cls-6" x1="421.28" y1="190" x2="421.28" y2="122.87"/><polyline class="cls-5" points="253.45 116.77 253.45 110.77 253.45 116.77"/><line class="cls-6" x1="253.45" y1="128.98" x2="253.45" y2="196.1"/><polyline class="cls-5" points="253.45 202.21 253.45 208.21 253.45 202.21"/><line class="cls-6" x1="253.45" y1="190" x2="253.45" y2="122.87"/><polyline class="cls-5" points="505.2 116.77 505.2 110.77 505.2 116.77"/><line class="cls-6" x1="505.2" y1="128.98" x2="505.2" y2="196.1"/><polyline class="cls-5" points="505.2 202.21 505.2 208.21 505.2 202.21"/><line class="cls-6" x1="505.2" y1="190" x2="505.2" y2="122.87"/><polyline class="cls-5" points="589.11 116.77 589.11 110.77 589.11 116.77"/><line class="cls-6" x1="589.11" y1="128.98" x2="589.11" y2="196.1"/><polyline class="cls-5" points="589.11 202.21 589.11 208.21 589.11 202.21"/><line class="cls-6" x1="589.11" y1="190" x2="589.11" y2="122.87"/><polyline class="cls-5" points="673.03 116.77 673.03 110.77 673.03 116.77"/><line class="cls-6" x1="673.03" y1="128.98" x2="673.03" y2="196.1"/><polyline class="cls-5" points="673.03 202.21 673.03 208.21 673.03 202.21"/><line class="cls-6" x1="673.03" y1="190" x2="673.03" y2="122.87"/><polyline class="cls-5" points="756.94 116.77 756.94 110.77 756.94 116.77"/><line class="cls-6" x1="756.94" y1="128.98" x2="756.94" y2="196.1"/><polyline class="cls-5" points="756.94 202.21 756.94 208.21 756.94 202.21"/><line class="cls-6" x1="756.94" y1="190" x2="756.94" y2="122.87"/><polyline class="cls-5" points="840.86 116.77 840.86 110.77 840.86 116.77"/><line class="cls-6" x1="840.86" y1="128.98" x2="840.86" y2="196.1"/><polyline class="cls-5" points="840.86 202.21 840.86 208.21 840.86 202.21"/><line class="cls-6" x1="840.86" y1="190" x2="840.86" y2="122.87"/><polyline class="cls-5" points="924.77 116.77 924.77 110.77 924.77 116.77"/><line class="cls-6" x1="924.78" y1="128.98" x2="924.78" y2="196.1"/><polyline class="cls-5" points="924.77 202.21 924.77 208.21 924.77 202.21"/><line class="cls-6" x1="924.78" y1="190" x2="924.78" y2="122.87"/><polyline class="cls-5" points="505.2 116.07 505.2 110.07 505.2 116.07"/><line class="cls-6" x1="505.2" y1="128.28" x2="505.2" y2="195.41"/><polyline class="cls-5" points="505.2 201.51 505.2 207.51 505.2 201.51"/><line class="cls-6" x1="505.2" y1="189.3" x2="505.2" y2="122.18"/><polyline class="cls-5" points="338.77 116.07 338.77 110.07 338.77 116.07"/><line class="cls-6" x1="338.77" y1="128.28" x2="338.77" y2="195.41"/><polyline class="cls-5" points="338.77 201.51 338.77 207.51 338.77 201.51"/><line class="cls-6" x1="338.77" y1="189.3" x2="338.77" y2="122.18"/><path class="cls-7" d="M421.51,68s4.22,16,42.41,15.84,41.74,16.17,41.74,16.17"/><path class="cls-7" d="M421.5,68.05s-4.22,16-42.41,15.84-41.74,16.17-41.74,16.17"/><polygon points="420.73 67.93 422.28 67.93 421.42 68.58 420.73 67.93"/><path class="cls-7" d="M253,68s4.22,16,42.41,15.84,41.74,16.17,41.74,16.17"/><path class="cls-7" d="M253,68.05s-4.22,16-42.41,15.84-41.74,16.17-41.74,16.17"/><polygon points="252.2 67.93 253.75 67.93 252.89 68.58 252.2 67.93"/><path class="cls-7" d="M589.81,68s4.22,16,42.41,15.84S674,100.05,674,100.05"/><path class="cls-7" d="M589.8,68.05s-4.22,16-42.41,15.84-41.74,16.17-41.74,16.17"/><polygon points="589.03 67.93 590.57 67.93 589.71 68.58 589.03 67.93"/><path class="cls-7" d="M758.11,68s4.22,16,42.41,15.84,41.74,16.17,41.74,16.17"/><path class="cls-7" d="M758.09,68.05s-4.21,16-42.4,15.84-41.75,16.17-41.75,16.17"/><polygon points="757.32 67.93 758.87 67.93 758.01 68.58 757.32 67.93"/><path class="cls-7" d="M911.25,73.38s3.46,13.12,34.77,13,34.23,13.25,34.23,13.25"/><path class="cls-7" d="M911.24,73.39s-3.46,13.12-34.77,13-34.23,13.26-34.23,13.26"/><polygon points="910.61 73.29 911.88 73.29 911.17 73.82 910.61 73.29"/><path d="M188.26,33.16h2.61l.25,1.89h.11a8,8,0,0,1,5.22-2.28c4.14,0,6.42,3.13,6.42,8,0,5.34-3.33,8.45-7,8.45a6.87,6.87,0,0,1-4.45-1.94h-.08l.15,2.85v5.11h-3.19Zm11.34,7.61c0-3.28-1.19-5.33-4-5.33a5.91,5.91,0,0,0-4.14,2.09v7.41a5.89,5.89,0,0,0,3.77,1.61C197.72,46.55,199.6,44.48,199.6,40.77Z"/><path d="M214.49,35.71h-7V33.16h10.2V48.83h-3.19Zm-1-7.89a2.38,2.38,0,1,1,2.38,2.27A2.21,2.21,0,0,1,213.45,27.82Z"/><path d="M226,41a7.91,7.91,0,0,1,8-8.2c4.6,0,7.22,3,7.22,7.4a10.79,10.79,0,0,1-.15,1.73H228.22V39.56h10.9l-.69.78c0-3.39-1.64-5.09-4.3-5.09s-5,2-5,5.72c0,3.85,2.41,5.74,5.78,5.74a8.53,8.53,0,0,0,4.58-1.38l1.12,2a11.1,11.1,0,0,1-6.1,1.86C229.76,49.21,226,46.19,226,41Z"/><path d="M245.63,41c0-5.25,4.06-8.25,8.83-8.25A8.07,8.07,0,0,1,260.2,35l-1.53,2a6.27,6.27,0,0,0-4.08-1.64A5.36,5.36,0,0,0,248.9,41a5.3,5.3,0,0,0,5.61,5.57,7.35,7.35,0,0,0,4.65-1.85l1.37,2.06a9.55,9.55,0,0,1-6.28,2.41C249.34,49.21,245.63,46.21,245.63,41Z"/><path d="M264.49,41a7.91,7.91,0,0,1,8-8.2c4.6,0,7.21,3,7.21,7.4a12.3,12.3,0,0,1-.14,1.73H266.7V39.56h10.91l-.69.78c0-3.39-1.65-5.09-4.3-5.09s-5,2-5,5.72c0,3.85,2.42,5.74,5.78,5.74A8.51,8.51,0,0,0,278,45.33l1.12,2a11.07,11.07,0,0,1-6.1,1.86C268.25,49.21,264.49,46.19,264.49,41Z"/><path d="M283.81,38.54c0-6.88,2.87-10.54,7.47-10.54s7.47,3.66,7.47,10.54-2.87,10.67-7.47,10.67S283.81,45.37,283.81,38.54Zm12,0c0-5.72-1.91-8-4.55-8s-4.55,2.28-4.55,8,1.91,8.13,4.55,8.13S295.83,44.26,295.83,38.54Zm-6.65-.18a2.1,2.1,0,1,1,2.1,2.22A2.08,2.08,0,0,1,289.18,38.36Z"/><path d="M67.81,304.84h-.1l-.3,1.73H64.89V283.83h3.19v6l-.14,2.89h.11a7.31,7.31,0,0,1,5-2.23c4.14,0,6.46,3.13,6.46,8,0,5.37-3.34,8.49-7,8.49A7.26,7.26,0,0,1,67.81,304.84Zm8.43-6.32c0-3.28-1.2-5.34-4-5.34a6,6,0,0,0-4.14,2.09v7.42a5.89,5.89,0,0,0,3.83,1.6C74.35,304.29,76.24,302.22,76.24,298.52Z"/><path d="M88.88,301.09V286.38H83.49v-2.55h8.58v17.45c0,2.17,1.23,3.05,3,3.05a6.87,6.87,0,0,0,2.81-.66l.77,2.38a10.38,10.38,0,0,1-4.32.91C90.77,307,88.88,304.87,88.88,301.09Z"/><path d="M102.38,298.76c0-5.24,3.68-8.24,7.81-8.24s7.8,3,7.8,8.24-3.68,8.2-7.8,8.2S102.38,304,102.38,298.76Zm12.34,0c0-3.37-1.76-5.62-4.53-5.62s-4.54,2.25-4.54,5.62,1.76,5.57,4.54,5.57S114.72,302.11,114.72,298.76Z"/><path d="M122.26,298.76c0-5.24,4.06-8.24,8.83-8.24a8.13,8.13,0,0,1,5.75,2.24l-1.54,2a6.24,6.24,0,0,0-4.07-1.64,5.36,5.36,0,0,0-5.69,5.62,5.29,5.29,0,0,0,5.6,5.57,7.38,7.38,0,0,0,4.65-1.84l1.37,2.06a9.6,9.6,0,0,1-6.28,2.41C126,307,122.26,304,122.26,298.76Z"/><path d="M142.17,283.83h3.2v14.79h.12l7.72-7.72h3.59l-11.43,11.5v4.17h-3.2Zm6.16,14.74,1.89-2,7.33,10H154Z"/><path d="M160.44,296.28c0-6.88,2.88-10.53,7.47-10.53s7.47,3.65,7.47,10.53S172.51,307,167.91,307,160.44,303.11,160.44,296.28Zm12,0c0-5.72-1.91-8-4.55-8s-4.55,2.27-4.55,8,1.91,8.14,4.55,8.14S172.46,302,172.46,296.28Zm-6.64-.18a2.1,2.1,0,1,1,2.09,2.23A2.07,2.07,0,0,1,165.82,296.1Z"/><path d="M304.87,304.84h-.1l-.3,1.73H302V283.83h3.19v6l-.14,2.89h.11a7.31,7.31,0,0,1,5-2.23c4.14,0,6.46,3.13,6.46,8,0,5.37-3.34,8.49-7,8.49A7.26,7.26,0,0,1,304.87,304.84Zm8.43-6.32c0-3.28-1.2-5.34-4-5.34a6,6,0,0,0-4.14,2.09v7.42a5.89,5.89,0,0,0,3.83,1.6C311.41,304.29,313.3,302.22,313.3,298.52Z"/><path d="M325.94,301.09V286.38h-5.39v-2.55h8.58v17.45c0,2.17,1.23,3.05,2.95,3.05a6.84,6.84,0,0,0,2.81-.66l.77,2.38a10.38,10.38,0,0,1-4.32.91C327.83,307,325.94,304.87,325.94,301.09Z"/><path d="M339.44,298.76c0-5.24,3.68-8.24,7.81-8.24s7.8,3,7.8,8.24-3.67,8.2-7.8,8.2S339.44,304,339.44,298.76Zm12.34,0c0-3.37-1.76-5.62-4.53-5.62s-4.54,2.25-4.54,5.62,1.76,5.57,4.54,5.57S351.78,302.11,351.78,298.76Z"/><path d="M359.32,298.76c0-5.24,4.07-8.24,8.83-8.24a8.13,8.13,0,0,1,5.75,2.24l-1.54,2a6.24,6.24,0,0,0-4.07-1.64,5.37,5.37,0,0,0-5.69,5.62,5.29,5.29,0,0,0,5.6,5.57,7.38,7.38,0,0,0,4.65-1.84l1.37,2.06a9.6,9.6,0,0,1-6.28,2.41C363,307,359.32,304,359.32,298.76Z"/><path d="M379.23,283.83h3.2v14.79h.12l7.72-7.72h3.59l-11.43,11.5v4.17h-3.2Zm6.16,14.74,1.89-2,7.33,10H391.1Z"/><path d="M398.31,304h5.8V289.77h-4.57v-2a14.38,14.38,0,0,0,5.39-1.6h2.37V304h5.15v2.62H398.31Z"/><path d="M356.6,33.86h2.61l.26,1.89h.1a8,8,0,0,1,5.22-2.28c4.14,0,6.43,3.13,6.43,8,0,5.33-3.34,8.45-7,8.45A7,7,0,0,1,359.72,48h-.08l.16,2.85v5.11h-3.2ZM368,41.47c0-3.28-1.19-5.34-4-5.34a5.93,5.93,0,0,0-4.13,2.1v7.41a5.87,5.87,0,0,0,3.77,1.61C366.06,47.25,368,45.18,368,41.47Z"/><path d="M382.83,36.41h-7V33.86H386V49.53h-3.2Zm-1-7.89a2.38,2.38,0,0,1,4.76,0,2.38,2.38,0,0,1-4.76,0Z"/><path d="M394.35,41.67a7.91,7.91,0,0,1,8-8.2c4.6,0,7.21,3,7.21,7.4a12.3,12.3,0,0,1-.14,1.73h-12.9V40.26h10.91l-.69.78c0-3.39-1.65-5.1-4.3-5.1s-5,2-5,5.73,2.42,5.74,5.79,5.74A8.5,8.5,0,0,0,407.84,46l1.12,2a11.07,11.07,0,0,1-6.1,1.86C398.11,49.91,394.35,46.88,394.35,41.67Z"/><path d="M414,41.72c0-5.25,4.06-8.25,8.82-8.25a8.09,8.09,0,0,1,5.75,2.25l-1.54,2a6.24,6.24,0,0,0-4.07-1.64,5.36,5.36,0,0,0-5.69,5.62,5.3,5.3,0,0,0,5.6,5.57,7.33,7.33,0,0,0,4.65-1.85l1.37,2.06a9.53,9.53,0,0,1-6.28,2.41C417.68,49.91,414,46.91,414,41.72Z"/><path d="M432.83,41.67a7.91,7.91,0,0,1,8-8.2c4.6,0,7.22,3,7.22,7.4a10.79,10.79,0,0,1-.15,1.73H435.05V40.26H446l-.69.78c0-3.39-1.64-5.1-4.3-5.1s-5,2-5,5.73,2.41,5.74,5.78,5.74A8.53,8.53,0,0,0,446.33,46l1.12,2a11.1,11.1,0,0,1-6.1,1.86C436.59,49.91,432.83,46.88,432.83,41.67Z"/><path d="M453,46.9h5.8V32.73h-4.57v-2a14.7,14.7,0,0,0,5.39-1.6H462V46.9h5.15v2.63H453Z"/><path d="M573,34.55h2.62l.25,1.9h.1a8,8,0,0,1,5.22-2.28c4.14,0,6.43,3.13,6.43,8,0,5.33-3.33,8.45-7,8.45a7,7,0,0,1-4.46-1.94h-.07l.15,2.85v5.11H573Zm11.35,7.62c0-3.28-1.19-5.34-4-5.34a5.93,5.93,0,0,0-4.13,2.1v7.41A5.87,5.87,0,0,0,580,48C582.5,48,584.38,45.88,584.38,42.17Z"/><path d="M591.68,48.36c6.65-5.81,10.47-9.36,10.47-12.64,0-2.25-1.36-3.74-4.15-3.74a6.85,6.85,0,0,0-4.7,2.34l-1.8-1.78a9.21,9.21,0,0,1,6.9-3.14c4.16,0,6.81,2.45,6.81,6.15s-3.76,7.52-8.9,12.14c1.25-.1,2.61-.18,3.79-.18h6.22v2.72H591.68Z"/><path d="M741,34.55h2.61l.26,1.9h.1a8,8,0,0,1,5.22-2.28c4.14,0,6.43,3.13,6.43,8,0,5.33-3.34,8.45-7,8.45a7,7,0,0,1-4.46-1.94H744l.15,2.85v5.11H741Zm11.35,7.62c0-3.28-1.2-5.34-4-5.34a6,6,0,0,0-4.14,2.1v7.41A5.89,5.89,0,0,0,748,48C750.44,48,752.33,45.88,752.33,42.17Z"/><path d="M759.12,47.72l1.56-2A8.13,8.13,0,0,0,766.31,48c2.65,0,4.6-1.3,4.6-3.39,0-2.27-1.87-3.77-7.08-3.77V38.47c4.63,0,6.39-1.52,6.39-3.54,0-1.81-1.56-2.95-3.87-2.95a7.47,7.47,0,0,0-4.85,2l-1.66-2a10.16,10.16,0,0,1,6.64-2.58c4,0,7,1.92,7,5.3,0,2.37-1.73,3.93-4.24,4.79v.12c2.68.61,4.93,2.37,4.93,5.14,0,3.67-3.44,5.86-7.58,5.86A10,10,0,0,1,759.12,47.72Z"/><path d="M894,34.55h2.61l.26,1.9h.1a8,8,0,0,1,5.22-2.28c4.14,0,6.43,3.13,6.43,8,0,5.33-3.34,8.45-7,8.45a7,7,0,0,1-4.46-1.94h-.08l.15,2.85v5.11H894Zm11.35,7.62c0-3.28-1.2-5.34-4-5.34a6,6,0,0,0-4.14,2.1v7.41A5.89,5.89,0,0,0,901,48C903.47,48,905.36,45.88,905.36,42.17Z"/><path d="M922,36.71c0-1.17.1-2.67.16-3.84H922c-.67,1-1.44,2.07-2.12,3.11L915,42.26h13v2.52H911.66V42.63l9.76-12.84H925V50.23h-3Z"/><path class="cls-7" d="M211.78,232.13s-2.14-8.1-21.47-8-21.13-8.19-21.13-8.19"/><path class="cls-7" d="M211.78,232.12s2.14-8.1,21.47-8,21.13-8.19,21.13-8.19"/><polygon points="212.18 232.18 211.39 232.18 211.83 231.85 212.18 232.18"/><path class="cls-7" d="M296.39,232.13s-2.13-8.1-21.47-8-21.13-8.19-21.13-8.19"/><path class="cls-7" d="M296.4,232.12s2.13-8.1,21.47-8S339,215.92,339,215.92"/><polygon points="296.79 232.18 296.01 232.18 296.44 231.85 296.79 232.18"/><path class="cls-8" d="M305.46,150.93l4.48-.16h9.32v2.55h-13.8Zm4.39-1.25c0-3.74,2-6.37,6.51-6.37a12.32,12.32,0,0,1,4.57.89l-.69,2.37a8.62,8.62,0,0,0-3.54-.71c-2.6,0-3.68,1.39-3.68,3.75v16.83h-3.17Z"/><path class="cls-8" d="M331.37,153.32h-7v-2.55h10.21v15.67h-3.2Zm-1-7.89a2.38,2.38,0,0,1,4.76,0,2.38,2.38,0,0,1-4.76,0Z"/><path class="cls-8" d="M348.37,161v-14.7H343V143.7h8.58v17.45c0,2.17,1.23,3,2.95,3a7,7,0,0,0,2.8-.66l.77,2.37a10.31,10.31,0,0,1-4.32.91C350.26,166.82,348.37,164.73,348.37,161Z"/><path class="cls-8" d="M362.13,158.58a7.91,7.91,0,0,1,8-8.2c4.6,0,7.22,3,7.22,7.4a12.09,12.09,0,0,1-.15,1.73h-12.9v-2.34h10.91l-.69.78c0-3.39-1.65-5.09-4.3-5.09s-5,2-5,5.72,2.42,5.74,5.79,5.74a8.56,8.56,0,0,0,4.58-1.38l1.11,2a11,11,0,0,1-6.1,1.86C365.89,166.82,362.13,163.8,362.13,158.58Z"/><path class="cls-8" d="M381.45,156.15c0-6.88,2.88-10.54,7.47-10.54s7.47,3.66,7.47,10.54-2.87,10.67-7.47,10.67S381.45,163,381.45,156.15Zm12,0c0-5.72-1.91-8-4.55-8s-4.55,2.28-4.55,8,1.91,8.13,4.55,8.13S393.47,161.87,393.47,156.15Zm-6.64-.18a2.1,2.1,0,1,1,2.09,2.22A2.07,2.07,0,0,1,386.83,156Z"/><path class="cls-8" d="M623.93,150.93l4.48-.16h9.32v2.55h-13.8Zm4.39-1.25c0-3.74,2-6.37,6.5-6.37a12.28,12.28,0,0,1,4.57.89l-.68,2.37a8.66,8.66,0,0,0-3.55-.71c-2.59,0-3.67,1.39-3.67,3.75v16.83h-3.17Z"/><path class="cls-8" d="M649.84,153.32h-7v-2.55H653v15.67h-3.19Zm-1-7.89a2.38,2.38,0,1,1,2.38,2.27A2.21,2.21,0,0,1,648.8,145.43Z"/><path class="cls-8" d="M666.83,161v-14.7h-5.38V143.7H670v17.44c0,2.18,1.23,3.06,3,3.06a7,7,0,0,0,2.81-.66l.77,2.37a10.38,10.38,0,0,1-4.32.91C668.73,166.82,666.83,164.73,666.83,161Z"/><path class="cls-8" d="M680.6,158.58a7.91,7.91,0,0,1,8-8.2c4.6,0,7.22,3,7.22,7.4a10.79,10.79,0,0,1-.15,1.73H682.81v-2.34h10.9L693,158c0-3.39-1.64-5.09-4.3-5.09s-5,2-5,5.72,2.41,5.74,5.78,5.74a8.53,8.53,0,0,0,4.58-1.38l1.12,2a11.1,11.1,0,0,1-6.1,1.86C684.35,166.82,680.6,163.8,680.6,158.58Z"/><path class="cls-8" d="M700.73,163.81h5.79V149.64H702v-2a14.7,14.7,0,0,0,5.39-1.6h2.37v17.81h5.15v2.63H700.73Z"/><path class="cls-8" d="M843.49,150.93l4.48-.16h9.32v2.55h-13.8Zm4.39-1.25c0-3.74,2-6.37,6.51-6.37a12.32,12.32,0,0,1,4.57.89l-.69,2.37a8.62,8.62,0,0,0-3.54-.71c-2.6,0-3.68,1.39-3.68,3.75v16.83h-3.17Z"/><path class="cls-8" d="M869.4,153.32h-7v-2.55h10.2v15.67h-3.2Zm-1-7.89a2.38,2.38,0,0,1,4.76,0,2.38,2.38,0,0,1-4.76,0Z"/><path class="cls-8" d="M886.4,161v-14.7H881V143.7h8.58v17.45c0,2.17,1.23,3,2.95,3a7,7,0,0,0,2.8-.66l.77,2.37a10.31,10.31,0,0,1-4.32.91C888.3,166.82,886.4,164.73,886.4,161Z"/><path class="cls-8" d="M900.16,158.58a7.91,7.91,0,0,1,8-8.2c4.6,0,7.22,3,7.22,7.4a12.09,12.09,0,0,1-.15,1.73h-12.9v-2.34h10.91l-.69.78c0-3.39-1.64-5.09-4.3-5.09s-5,2-5,5.72,2.42,5.74,5.79,5.74a8.53,8.53,0,0,0,4.58-1.38l1.12,2a11.05,11.05,0,0,1-6.11,1.86C903.92,166.82,900.16,163.8,900.16,158.58Z"/><path class="cls-8" d="M919.55,164.57c6.64-5.81,10.46-9.36,10.46-12.64,0-2.25-1.36-3.74-4.15-3.74a6.84,6.84,0,0,0-4.69,2.34l-1.8-1.77a9.16,9.16,0,0,1,6.9-3.15c4.15,0,6.81,2.45,6.81,6.15s-3.77,7.52-8.9,12.14c1.25-.1,2.61-.18,3.78-.18h6.22v2.72H919.55Z"/><line class="cls-7" x1="211.16" y1="236.21" x2="172.92" y2="266.4"/><path d="M165.53,272.23c2.46-4,5-9.64,5.87-14.09l2.49,7.49,6.7,4.16C176.07,269.57,170,270.77,165.53,272.23Z"/><line class="cls-7" x1="297.56" y1="236.21" x2="335.8" y2="266.4"/><path d="M343.19,272.23c-4.5-1.45-10.55-2.66-15.06-2.44l6.7-4.16,2.49-7.48C338.15,262.59,340.73,268.2,343.19,272.23Z"/></g></svg>