<svg xmlns="http://www.w3.org/2000/svg" viewBox="0 0 1190.55 614.91"><defs><style>.cls-1{fill:#88d3ed;}.cls-2,.cls-3,.cls-4{fill:none;stroke:#000;stroke-miterlimit:10;}.cls-2{stroke-width:5.72px;}.cls-3{stroke-width:4.09px;}.cls-4{stroke-width:3.27px;}</style></defs><title>sird</title><g id="Слой_2" data-name="Слой 2"><polygon class="cls-1" points="472.42 365.36 470.8 331.01 713.44 285.25 719.76 318.75 472.42 365.36"/><polygon class="cls-1" points="472.42 446.68 470.8 412.33 713.44 366.58 719.76 400.07 472.42 446.68"/><polygon class="cls-1" points="472.42 480.99 470.8 446.65 713.44 400.89 719.76 434.38 472.42 480.99"/><polygon class="cls-1" points="472.42 514.82 470.8 480.47 713.44 434.71 719.76 468.21 472.42 514.82"/><polygon class="cls-1" points="472.42 549.13 470.8 514.79 713.44 469.03 719.76 502.52 472.42 549.13"/><polygon class="cls-1" points="472.42 215.78 470.8 181.44 713.44 135.68 719.76 169.18 472.42 215.78"/><polygon class="cls-1" points="472.42 331.04 470.8 296.7 713.44 250.94 719.76 284.44 472.42 331.04"/><line class="cls-2" x1="471.93" y1="70.89" x2="471.93" y2="589.81"/><rect class="cls-1" x="712.44" y="74.7" width="8.84" height="515.11"/><rect class="cls-3" x="401.32" y="26.99" width="151.42" height="43.9"/><path d="M677.83,43.39h2.26l.22,1.64h.09a6.92,6.92,0,0,1,4.52-2c3.58,0,5.56,2.71,5.56,6.92,0,4.62-2.89,7.32-6.09,7.32a6,6,0,0,1-3.86-1.69h-.07l.13,2.47V62.5h-2.76Zm9.82,6.6c0-2.84-1-4.62-3.48-4.62a5.1,5.1,0,0,0-3.58,1.81V53.6A5.1,5.1,0,0,0,683.86,55C686,55,687.65,53.2,687.65,50Z"/><path d="M693.85,50.15a6.85,6.85,0,0,1,7-7.09c4,0,6.25,2.61,6.25,6.4a9.53,9.53,0,0,1-.13,1.51H695.77v-2h9.44l-.6.68c0-2.94-1.42-4.42-3.72-4.42s-4.32,1.75-4.32,4.95,2.09,5,5,5a7.44,7.44,0,0,0,4-1.19l1,1.74a9.61,9.61,0,0,1-5.29,1.62C697.11,57.3,693.85,54.67,693.85,50.15Z"/><path d="M710.52,50.15a6.85,6.85,0,0,1,7-7.09c4,0,6.25,2.61,6.25,6.4A9.53,9.53,0,0,1,723.6,51H712.43v-2h9.45l-.6.68c0-2.94-1.42-4.42-3.73-4.42s-4.32,1.75-4.32,4.95,2.09,5,5,5a7.4,7.4,0,0,0,4-1.19l1,1.74a9.58,9.58,0,0,1-5.28,1.62C713.77,57.3,710.52,54.67,710.52,50.15Z"/><path d="M729.2,43.39h2.29l.25,3.15h.07a6.92,6.92,0,0,1,5.91-3.48,5.68,5.68,0,0,1,2.66.55L739.77,46a7,7,0,0,0-2.48-.43c-1.94,0-3.82,1-5.32,3.73V57H729.2Z"/><path class="cls-1" d="M789.23,74.86H631.5V24.65H789.23ZM637.81,68.55H782.92V31H637.81Z"/><path d="M352.81,95.2h1.87l.2,2.58h.05a5.68,5.68,0,0,1,4.85-2.84,4.78,4.78,0,0,1,2.18.46l-.5,1.93a5.47,5.47,0,0,0-2-.36c-1.59,0-3.13.8-4.36,3l0,6.3h-2.26Z"/><path d="M364.78,100.77A5.61,5.61,0,0,1,370.5,95c3.26,0,5.11,2.16,5.1,5.26a7.54,7.54,0,0,1-.11,1.23l-9.14,0V99.78l7.73,0-.49.55c0-2.41-1.15-3.62-3-3.62s-3.54,1.42-3.55,4a3.76,3.76,0,0,0,4.09,4.09,6.08,6.08,0,0,0,3.25-1l.79,1.43a7.92,7.92,0,0,1-4.33,1.31C367.43,106.62,364.77,104.47,364.78,100.77Z"/><path d="M386.32,107.08l.12-2h-.06a4.91,4.91,0,0,1-3.39,1.57c-2.86,0-4.76-2.14-4.75-5.82s2.4-5.84,5-5.83a4.52,4.52,0,0,1,3.33,1.49h.07l.21-1.21h1.79l0,15.64h-2.27Zm0-3.78,0-5.26a3.75,3.75,0,0,0-2.63-1.14c-1.73,0-3.15,1.49-3.16,3.92s1.11,4,3,4A3.69,3.69,0,0,0,386.33,103.3Z"/><path d="M392.26,102.2l0-6.89h2.26l0,6.6c0,1.92.64,2.84,2.31,2.84,1.16,0,2-.51,3.11-1.82l0-7.6h2.26l0,11.1h-1.87l-.18-1.85h-.09a5.26,5.26,0,0,1-4,2.11C393.42,106.69,392.25,105.09,392.26,102.2Z"/><path d="M405.71,100.88a5.6,5.6,0,0,1,5.72-5.79c3.26,0,5.11,2.15,5.1,5.26a7.76,7.76,0,0,1-.11,1.23l-9.14,0V99.89l7.72,0-.49.55c0-2.4-1.15-3.61-3-3.62s-3.54,1.43-3.55,4A3.75,3.75,0,0,0,412,105a6,6,0,0,0,3.25-1l.79,1.44a7.81,7.81,0,0,1-4.33,1.3C408.36,106.73,405.7,104.58,405.71,100.88Z"/><path d="M419.38,105l1-1.47a8.09,8.09,0,0,0,4.73,1.48c1.7,0,2.52-.68,2.52-1.51s-.46-1.29-3.25-1.87-4.31-1.64-4.31-3.32c0-1.86,1.68-3.23,4.76-3.22a8.51,8.51,0,0,1,4.56,1.45L428.34,98a6.77,6.77,0,0,0-3.69-1.15c-1.66,0-2.3.65-2.3,1.41s.88,1.21,3.06,1.69c3.61.8,4.52,1.73,4.51,3.47s-1.81,3.38-5.09,3.37A9.86,9.86,0,0,1,419.38,105Z"/><path d="M436,102.15l0-4.91H433V95.54l3.15-.11.31-3.52h1.88v3.52h5.24v1.81l-5.24,0v4.92c0,1.91.67,2.83,2.68,2.84a7.08,7.08,0,0,0,2.53-.47l.46,1.66a10.3,10.3,0,0,1-3.52.63C437.12,106.82,436,104.93,436,102.15Z"/><path d="M446.7,99.28c0-4.88,2.06-7.47,5.32-7.46s5.29,2.61,5.28,7.49-2.06,7.56-5.32,7.55S446.69,104.12,446.7,99.28Zm8.53,0c0-4-1.34-5.67-3.21-5.68s-3.24,1.61-3.25,5.66,1.34,5.77,3.21,5.78S455.21,103.35,455.23,99.3Zm-4.72-.14a1.49,1.49,0,1,1,1.49,1.58A1.49,1.49,0,0,1,450.51,99.16Z"/><path d="M434.89,205.8h1.87l.2,2.58H437a5.69,5.69,0,0,1,4.85-2.84A4.76,4.76,0,0,1,444,206l-.5,1.92a5.46,5.46,0,0,0-2-.36c-1.6,0-3.13.8-4.37,3l0,6.3h-2.26Z"/><path d="M447.48,215.08h4.11l0-10h-3.24v-1.45a10.29,10.29,0,0,0,3.82-1.12h1.68l0,12.62h3.65V217l-10,0Z"/><path d="M433.63,241.67h1.87l.2,2.58h.05a5.67,5.67,0,0,1,4.85-2.83,4.66,4.66,0,0,1,2.18.46l-.51,1.92a5.59,5.59,0,0,0-2-.36c-1.59,0-3.13.8-4.36,3l0,6.3h-2.27Z"/><path d="M445.69,251.49c4.72-4.1,7.44-6.61,7.45-8.94,0-1.59-1-2.65-2.94-2.66a4.84,4.84,0,0,0-3.33,1.65l-1.27-1.26a6.47,6.47,0,0,1,4.89-2.21c2.95,0,4.82,1.75,4.82,4.37s-2.69,5.32-6.34,8.59c.89-.07,1.85-.12,2.69-.12h4.4v1.93l-10.38,0Z"/><path d="M434.07,323.36h1.87l.2,2.57h.05a5.66,5.66,0,0,1,4.85-2.84,4.63,4.63,0,0,1,2.18.46l-.5,1.92a5.91,5.91,0,0,0-2-.36c-1.59,0-3.12.8-4.36,3l0,6.31H434Z"/><path d="M445.77,332.73l1.11-1.45a5.71,5.71,0,0,0,4,1.65c1.87,0,3.26-.9,3.27-2.39s-1.33-2.67-5-2.68v-1.68c3.28,0,4.53-1.06,4.54-2.49s-1.1-2.1-2.74-2.1a5.28,5.28,0,0,0-3.44,1.39l-1.18-1.41a7.27,7.27,0,0,1,4.71-1.81c2.84,0,4.94,1.38,4.93,3.77,0,1.69-1.24,2.78-3,3.39V327c1.9.43,3.5,1.68,3.49,3.65,0,2.6-2.46,4.14-5.39,4.14A7.11,7.11,0,0,1,445.77,332.73Z"/><path d="M434.07,359.57h1.87l.2,2.57h.05a5.67,5.67,0,0,1,4.85-2.83,4.63,4.63,0,0,1,2.18.46l-.5,1.92a5.68,5.68,0,0,0-2-.36c-1.59,0-3.12.8-4.36,3l0,6.31H434Z"/><path d="M452.79,361.16c0-.83.08-1.9.13-2.73h-.11c-.48.74-1,1.47-1.51,2.2l-3.48,4.44,9.22,0v1.79l-11.6,0v-1.53l6.95-9.08h2.55l-.05,14.48h-2.12Z"/><path d="M434.07,393.78h1.87l.2,2.58h.05a5.67,5.67,0,0,1,4.85-2.83,4.63,4.63,0,0,1,2.18.46l-.5,1.92a5.68,5.68,0,0,0-2-.36c-1.59,0-3.12.8-4.36,3l0,6.3H434Z"/><path d="M445.77,403.21l1.09-1.48a5.65,5.65,0,0,0,3.91,1.62c1.92,0,3.44-1.13,3.44-3s-1.32-2.92-3.3-2.93a5.12,5.12,0,0,0-2.82.82L447,397.5l.47-7.06,8.38,0v1.94l-6.39,0-.36,3.87a5.91,5.91,0,0,1,2.48-.52c2.74,0,5,1.42,5,4.54s-2.64,4.94-5.46,4.93A7.41,7.41,0,0,1,445.77,403.21Z"/><path d="M434.07,428h1.87l.2,2.58h.05a5.65,5.65,0,0,1,4.85-2.83,4.63,4.63,0,0,1,2.18.46l-.5,1.92a5.68,5.68,0,0,0-2-.36c-1.59,0-3.12.8-4.36,3l0,6.3H434Z"/><path d="M446.23,432.38c0-5.71,3-8,6.13-8a6,6,0,0,1,4.19,1.61l-1.24,1.39a4.23,4.23,0,0,0-2.79-1.14c-2.24,0-4.17,1.55-4.19,6.14,0,3.57,1.35,5.28,3.49,5.29a2.77,2.77,0,0,0,2.83-2.95,2.53,2.53,0,0,0-2.81-2.83,4.66,4.66,0,0,0-3.54,1.91l-.08-1.67a6,6,0,0,1,4.06-1.9c2.64,0,4.51,1.49,4.5,4.49a4.73,4.73,0,0,1-4.95,4.69C448.72,439.41,446.21,437.15,446.23,432.38Z"/><path d="M735.25,154.27h-.08l-.21,1.22h-1.79l.05-16.12h2.27l0,4.27-.1,2h.07a5.25,5.25,0,0,1,3.55-1.57c2.94,0,4.57,2.24,4.56,5.66,0,3.8-2.38,6-5,6A5.09,5.09,0,0,1,735.25,154.27Zm6-4.47c0-2.32-.83-3.78-2.83-3.79a4.19,4.19,0,0,0-2.94,1.48v5.25a4.14,4.14,0,0,0,2.7,1.15C739.88,153.89,741.23,152.43,741.23,149.8Z"/><path d="M750.19,151.65l0-10.42h-3.81v-1.81l6.08,0,0,12.37a1.91,1.91,0,0,0,2.08,2.17,5.08,5.08,0,0,0,2-.46l.54,1.68a7.44,7.44,0,0,1-3.06.64C751.52,155.82,750.18,154.33,750.19,151.65Z"/><path d="M759.77,150a5.54,5.54,0,1,1,5.52,5.83A5.48,5.48,0,0,1,759.77,150Zm8.75,0c0-2.39-1.24-4-3.2-4s-3.22,1.58-3.23,4,1.24,4,3.2,4S768.51,152.44,768.52,150.06Z"/><path d="M773.87,150.08c0-3.72,2.9-5.84,6.27-5.83a5.71,5.71,0,0,1,4.07,1.61l-1.09,1.42a4.52,4.52,0,0,0-2.88-1.17,3.81,3.81,0,0,0-4,4,3.75,3.75,0,0,0,4,4,5.21,5.21,0,0,0,3.3-1.29l1,1.46a6.82,6.82,0,0,1-4.46,1.7C776.48,155.89,773.86,153.76,773.87,150.08Z"/><path d="M788,139.54h2.26l0,10.49h.09l5.49-5.46h2.55l-8.14,8.13v2.95H788ZM792.35,150l1.35-1.44,5.17,7.13h-2.49Z"/><path d="M801,148.4c0-4.88,2.06-7.46,5.31-7.45s5.29,2.61,5.28,7.49-2.06,7.56-5.32,7.55S800.93,153.24,801,148.4Zm8.52,0c0-4.06-1.34-5.67-3.21-5.68s-3.23,1.6-3.24,5.66,1.33,5.77,3.2,5.78S809.46,152.48,809.47,148.43Zm-4.71-.15a1.49,1.49,0,1,1,3,0,1.49,1.49,0,0,1-1.49,1.58A1.47,1.47,0,0,1,804.76,148.28Z"/><path d="M736.47,268.53h-.07l-.21,1.23H734.4l.05-16.12h2.26v4.28l-.11,2h.08a5.23,5.23,0,0,1,3.55-1.57c2.93,0,4.57,2.23,4.56,5.66,0,3.8-2.38,6-5,6A5.13,5.13,0,0,1,736.47,268.53Zm6-4.46c0-2.33-.83-3.79-2.83-3.79a4.16,4.16,0,0,0-2.94,1.47l0,5.26a4.14,4.14,0,0,0,2.71,1.14C741.11,268.16,742.45,266.7,742.46,264.07Z"/><path d="M748.16,267.93l4.1,0,0-10.05h-3.23v-1.45a10.35,10.35,0,0,0,3.83-1.12h1.68l0,12.62,3.64,0v1.86l-10,0Z"/><path d="M736.47,305.8h-.07l-.21,1.23H734.4l.05-16.12h2.26v4.28l-.11,2h.08a5.23,5.23,0,0,1,3.55-1.57c2.93,0,4.57,2.23,4.56,5.66,0,3.8-2.38,6-5,6A5.13,5.13,0,0,1,736.47,305.8Zm6-4.46c0-2.33-.83-3.79-2.83-3.79a4.16,4.16,0,0,0-2.94,1.47l0,5.26a4.14,4.14,0,0,0,2.71,1.14C741.11,305.43,742.45,304,742.46,301.34Z"/><path d="M747.63,305.74c4.72-4.1,7.44-6.61,7.44-8.94,0-1.59-1-2.65-2.93-2.65a4.83,4.83,0,0,0-3.34,1.64l-1.27-1.26a6.49,6.49,0,0,1,4.9-2.21c3,0,4.82,1.75,4.81,4.37s-2.68,5.32-6.33,8.59c.89-.07,1.85-.12,2.68-.12H758v1.93l-10.38,0Z"/><path d="M736.47,385.84h-.07l-.21,1.23H734.4l.05-16.12h2.26v4.27l-.11,2h.08a5.14,5.14,0,0,1,3.55-1.57c2.93,0,4.57,2.23,4.56,5.65,0,3.81-2.38,6-5,6A5.13,5.13,0,0,1,736.47,385.84Zm6-4.46c0-2.33-.83-3.79-2.83-3.79a4.16,4.16,0,0,0-2.94,1.47l0,5.26a4.19,4.19,0,0,0,2.71,1.14C741.11,385.47,742.45,384,742.46,381.38Z"/><path d="M747.26,385.33l1.12-1.45a5.8,5.8,0,0,0,4,1.65c1.87,0,3.26-.91,3.26-2.39s-1.32-2.67-5-2.69v-1.67c3.27,0,4.53-1.07,4.53-2.49s-1.1-2.1-2.73-2.11a5.32,5.32,0,0,0-3.45,1.4l-1.17-1.41a7.16,7.16,0,0,1,4.71-1.81c2.84,0,4.93,1.37,4.93,3.77,0,1.68-1.24,2.78-3,3.38v.09c1.9.43,3.49,1.69,3.49,3.65,0,2.6-2.46,4.15-5.39,4.14A7.13,7.13,0,0,1,747.26,385.33Z"/><path d="M736.47,420.52h-.07l-.21,1.22H734.4l.05-16.12h2.26v4.27l-.11,2h.08a5.23,5.23,0,0,1,3.55-1.57c2.93,0,4.57,2.24,4.56,5.66,0,3.8-2.38,6-5,6A5.18,5.18,0,0,1,736.47,420.52Zm6-4.47c0-2.32-.83-3.78-2.83-3.79a4.17,4.17,0,0,0-2.94,1.48l0,5.25a4.16,4.16,0,0,0,2.71,1.15C741.11,420.14,742.45,418.68,742.46,416.05Z"/><path d="M754.29,412.22c0-.83.07-1.89.12-2.72h-.11c-.48.73-1,1.46-1.51,2.19l-3.47,4.45,9.22,0V418l-11.61,0v-1.53l7-9.08h2.54l0,14.49h-2.12Z"/><path d="M736.47,455.19h-.07l-.21,1.23H734.4l.05-16.12h2.26v4.28l-.11,2h.08a5.19,5.19,0,0,1,3.55-1.57c2.93,0,4.57,2.23,4.56,5.66,0,3.8-2.38,6-5,6A5.13,5.13,0,0,1,736.47,455.19Zm6-4.46c0-2.33-.83-3.79-2.83-3.79a4.16,4.16,0,0,0-2.94,1.47l0,5.26a4.19,4.19,0,0,0,2.71,1.14C741.11,454.82,742.45,453.35,742.46,450.73Z"/><path d="M747.27,454.73l1.09-1.47a5.63,5.63,0,0,0,3.9,1.62c1.93,0,3.44-1.14,3.45-3s-1.32-2.92-3.3-2.93a5.12,5.12,0,0,0-2.82.82l-1.13-.72.48-7.06,8.37,0v1.94l-6.4,0-.36,3.86a6,6,0,0,1,2.48-.51c2.75,0,5,1.42,5,4.54s-2.63,4.94-5.45,4.93A7.33,7.33,0,0,1,747.27,454.73Z"/><path d="M736.47,489.87h-.07l-.21,1.22H734.4l.05-16.12h2.26v4.28l-.11,2h.08a5.23,5.23,0,0,1,3.55-1.57c2.93,0,4.57,2.24,4.56,5.66,0,3.8-2.38,6-5,6A5.23,5.23,0,0,1,736.47,489.87Zm6-4.47c0-2.32-.83-3.78-2.83-3.79a4.17,4.17,0,0,0-2.94,1.48l0,5.25a4.21,4.21,0,0,0,2.71,1.15C741.11,489.49,742.45,488,742.46,485.4Z"/><path d="M747.72,484.38c0-5.71,3-8,6.14-8A5.92,5.92,0,0,1,758,478l-1.23,1.39a4.19,4.19,0,0,0-2.8-1.14c-2.23,0-4.17,1.55-4.18,6.13,0,3.58,1.34,5.29,3.49,5.29a2.76,2.76,0,0,0,2.83-2.95,2.54,2.54,0,0,0-2.82-2.83,4.7,4.7,0,0,0-3.53,1.91l-.09-1.66a6,6,0,0,1,4.07-1.9c2.64,0,4.5,1.49,4.49,4.49a4.72,4.72,0,0,1-4.94,4.69C750.22,491.41,747.71,489.14,747.72,484.38Z"/><line class="cls-4" x1="472.54" y1="100.52" x2="704.8" y2="130.24"/><path d="M714.58,131.49c-4.82,1.12-10.9,3.3-14.84,5.94l3.78-7.36L701.71,122C704.86,125.55,710.2,129.19,714.58,131.49Z"/><line class="cls-4" x1="472.54" y1="215.78" x2="704.8" y2="245.5"/><path d="M714.58,246.75c-4.82,1.12-10.9,3.3-14.84,5.94l3.78-7.36-1.81-8.06C704.86,240.81,710.2,244.45,714.58,246.75Z"/><line class="cls-4" x1="472.54" y1="250.2" x2="704.8" y2="279.92"/><path d="M714.58,281.17c-4.82,1.12-10.9,3.3-14.84,5.94l3.78-7.36-1.81-8.06C704.86,275.23,710.2,278.87,714.58,281.17Z"/><circle cx="582.91" cy="586.71" r="3.09"/><circle cx="595.28" cy="586.71" r="3.09"/><circle cx="607.65" cy="586.71" r="3.09"/><line class="cls-4" x1="472.54" y1="366.26" x2="704.8" y2="395.97"/><path d="M714.58,397.23c-4.82,1.11-10.9,3.3-14.84,5.93l3.78-7.35-1.81-8.07C704.86,391.28,710.2,394.93,714.58,397.23Z"/><line class="cls-4" x1="472.54" y1="400.93" x2="704.8" y2="430.65"/><path d="M714.58,431.9c-4.82,1.12-10.9,3.3-14.84,5.94l3.78-7.36-1.81-8.06C704.86,426,710.2,429.6,714.58,431.9Z"/><line class="cls-4" x1="472.54" y1="435.35" x2="704.8" y2="465.07"/><path d="M714.58,466.32c-4.82,1.12-10.9,3.3-14.84,5.94l3.78-7.36-1.81-8.06C704.86,460.38,710.2,464,714.58,466.32Z"/><line class="cls-4" x1="472.54" y1="331.84" x2="704.8" y2="361.55"/><path d="M714.58,362.81c-4.82,1.12-10.9,3.3-14.84,5.93l3.78-7.35-1.81-8.06C704.86,356.87,710.2,360.51,714.58,362.81Z"/><path d="M426.64,49.38c0-4.54,3.51-7.14,7.64-7.14a7,7,0,0,1,5,1.95l-1.33,1.74a5.48,5.48,0,0,0-3.53-1.42,4.65,4.65,0,0,0-4.93,4.87,4.59,4.59,0,0,0,4.85,4.83,6.37,6.37,0,0,0,4-1.6l1.19,1.78a8.27,8.27,0,0,1-5.44,2.09C429.85,56.48,426.64,53.88,426.64,49.38Z"/><path d="M447.73,51.4V38.66h-4.67V36.45h7.44V51.56a2.33,2.33,0,0,0,2.55,2.65,6,6,0,0,0,2.43-.57l.67,2a9,9,0,0,1-3.74.79C449.37,56.48,447.73,54.67,447.73,51.4Z"/><path d="M466.35,44.78h-6.07V42.57h8.83V56.15h-2.76ZM465.44,38a2.07,2.07,0,0,1,4.13,0,2.07,2.07,0,0,1-4.13,0Z"/><path d="M476.33,49.34a6.85,6.85,0,0,1,7-7.1c4,0,6.25,2.62,6.25,6.41a11.09,11.09,0,0,1-.12,1.5H478.25v-2h9.44l-.6.68c0-2.94-1.42-4.42-3.72-4.42s-4.33,1.76-4.33,5,2.1,5,5,5a7.36,7.36,0,0,0,4-1.2l1,1.75a9.61,9.61,0,0,1-5.29,1.61C479.58,56.48,476.33,53.86,476.33,49.34Z"/><path d="M493.64,42.57h2.27l.22,2.17h.11a6.88,6.88,0,0,1,5-2.5c3.17,0,4.62,1.95,4.62,5.49v8.42h-2.77V48.09c0-2.37-.79-3.47-2.81-3.47-1.47,0-2.47.73-3.87,2.17v9.36h-2.77Z"/><path d="M513.38,50.78v-6h-3.74V42.72l3.85-.15.36-4.3h2.3v4.3h6.4v2.21h-6.4v6c0,2.33.82,3.46,3.28,3.46a8.68,8.68,0,0,0,3.09-.58l.57,2a12.45,12.45,0,0,1-4.3.79C514.73,56.48,513.38,54.19,513.38,50.78Z"/></g></svg>