<svg xmlns="http://www.w3.org/2000/svg" viewBox="0 0 1190.55 611.37"><defs><style>.cls-1,.cls-3,.cls-4,.cls-5{fill:none;stroke-miterlimit:10;}.cls-1,.cls-3,.cls-4{stroke:#000;}.cls-1{stroke-width:5.05px;}.cls-2{fill:#88d3ed;}.cls-3,.cls-5{stroke-width:8.84px;}.cls-4{stroke-width:6.32px;}.cls-5{stroke:#88d3ed;}</style></defs><title>last 2</title><g id="Слой_2" data-name="Слой 2"><line class="cls-1" x1="156.31" y1="101.39" x2="383.38" y2="130.44"/><path d="M398.51,132.37c-7.46,1.73-16.86,5.11-22.95,9.18l5.84-11.36-2.79-12.47C383.48,123.19,391.73,128.83,398.51,132.37Z"/><line class="cls-1" x1="156.31" y1="220.28" x2="383.38" y2="249.33"/><path d="M398.51,251.26c-7.46,1.73-16.86,5.11-22.95,9.18l5.84-11.36-2.79-12.47C383.48,242.08,391.73,247.72,398.51,251.26Z"/><polygon class="cls-2" points="156.19 338.88 154.57 304.51 397.37 258.73 403.69 292.25 156.19 338.88"/><polygon class="cls-2" points="156.19 457.77 154.57 423.4 397.37 377.62 403.69 411.13 156.19 457.77"/><line class="cls-1" x1="156.31" y1="339.17" x2="383.38" y2="368.22"/><path d="M398.51,370.15c-7.46,1.74-16.86,5.11-22.95,9.18L381.4,368l-2.79-12.47C383.48,361,391.73,366.61,398.51,370.15Z"/><polygon class="cls-2" points="156.19 576.66 154.57 542.29 397.37 496.51 403.69 530.02 156.19 576.66"/><line class="cls-1" x1="156.31" y1="458.06" x2="383.38" y2="487.11"/><path d="M398.51,489c-7.46,1.74-16.86,5.11-22.95,9.18l5.84-11.36-2.79-12.47C383.48,479.86,391.73,485.5,398.51,489Z"/><polygon class="cls-2" points="156.19 219.99 154.57 185.62 397.37 139.84 403.69 173.35 156.19 219.99"/><line class="cls-3" x1="155.71" y1="74.28" x2="155.71" y2="589.71"/><rect class="cls-2" x="396.37" y="71.74" width="7.83" height="519.24"/><path d="M110.41,50.22c0-4.55,3.52-7.15,7.65-7.15a7,7,0,0,1,5,2l-1.33,1.75a5.43,5.43,0,0,0-3.53-1.42,4.65,4.65,0,0,0-4.93,4.87A4.58,4.58,0,0,0,118.1,55a6.37,6.37,0,0,0,4-1.6l1.19,1.78a8.28,8.28,0,0,1-5.44,2.1C113.62,57.32,110.41,54.72,110.41,50.22Z"/><path d="M131.5,52.23V39.49h-4.66V37.28h7.43V52.4A2.34,2.34,0,0,0,136.83,55a6,6,0,0,0,2.43-.57l.67,2.05a8.86,8.86,0,0,1-3.74.8C133.15,57.32,131.5,55.5,131.5,52.23Z"/><path d="M150.12,45.61h-6.07v-2.2h8.84V57h-2.77Zm-.9-6.83a2.07,2.07,0,1,1,2.06,2A1.94,1.94,0,0,1,149.22,38.78Z"/><path d="M160.11,50.17a6.85,6.85,0,0,1,7-7.1c4,0,6.25,2.62,6.25,6.41a10.94,10.94,0,0,1-.12,1.5H162V49h9.45l-.6.67c0-2.94-1.42-4.42-3.72-4.42s-4.33,1.76-4.33,5,2.09,5,5,5a7.36,7.36,0,0,0,4-1.2l1,1.75a9.64,9.64,0,0,1-5.29,1.62C163.36,57.32,160.11,54.69,160.11,50.17Z"/><path d="M177.42,43.41h2.26l.22,2.16H180a6.9,6.9,0,0,1,5-2.5c3.17,0,4.62,2,4.62,5.49V57h-2.77V48.92c0-2.37-.8-3.46-2.81-3.46-1.48,0-2.47.72-3.87,2.16V57h-2.77Z"/><path d="M197.16,51.61v-6h-3.74V43.55l3.85-.14.36-4.31h2.29v4.31h6.41v2.2h-6.41v6c0,2.33.83,3.46,3.29,3.46a8.68,8.68,0,0,0,3.09-.58l.56,2a12.33,12.33,0,0,1-4.29.8C198.51,57.32,197.16,55,197.16,51.61Z"/><rect class="cls-4" x="85.05" y="27.81" width="151.51" height="43.93"/><path d="M361.3,43.41h2.27l.22,1.63h.09a7,7,0,0,1,4.52-2C372,43.07,374,45.78,374,50c0,4.62-2.89,7.33-6.1,7.33A6.06,6.06,0,0,1,364,55.63h-.06l.13,2.48v4.42H361.3ZM371.13,50c0-2.84-1-4.62-3.48-4.62a5.14,5.14,0,0,0-3.58,1.81v6.43A5.1,5.1,0,0,0,367.34,55C369.5,55,371.13,53.21,371.13,50Z"/><path d="M377.34,50.17a6.85,6.85,0,0,1,7-7.1c4,0,6.26,2.62,6.26,6.41a10.72,10.72,0,0,1-.13,1.5H379.26V49h9.44l-.59.67c0-2.94-1.43-4.42-3.73-4.42s-4.33,1.76-4.33,5,2.1,5,5,5a7.36,7.36,0,0,0,4-1.2l1,1.75a9.61,9.61,0,0,1-5.29,1.62C380.59,57.32,377.34,54.69,377.34,50.17Z"/><path d="M394,50.17a6.85,6.85,0,0,1,7-7.1c4,0,6.25,2.62,6.25,6.41a9.39,9.39,0,0,1-.13,1.5H395.93V49h9.45l-.6.67c0-2.94-1.42-4.42-3.72-4.42s-4.33,1.76-4.33,5,2.09,5,5,5a7.38,7.38,0,0,0,4-1.2l1,1.75a9.64,9.64,0,0,1-5.29,1.62C397.27,57.32,394,54.69,394,50.17Z"/><path d="M412.71,43.41H415l.25,3.14h.07a6.92,6.92,0,0,1,5.91-3.48,5.69,5.69,0,0,1,2.66.56l-.6,2.35a6.79,6.79,0,0,0-2.49-.44c-1.94,0-3.82,1-5.32,3.74V57h-2.77Z"/><path class="cls-2" d="M473.2,74.89H315.37V24.65H473.2ZM321.69,68.58h145.2V31H321.69Z"/><path d="M34.74,95.61h1.87l.2,2.58h0a5.68,5.68,0,0,1,4.85-2.84,4.78,4.78,0,0,1,2.18.46l-.51,1.93a5.39,5.39,0,0,0-2-.36c-1.59,0-3.13.8-4.36,3l0,6.3H34.7Z"/><path d="M46.71,101.18a5.61,5.61,0,0,1,5.71-5.8c3.26,0,5.11,2.16,5.11,5.26a10.73,10.73,0,0,1-.11,1.23l-9.14,0v-1.65l7.73,0-.49.55c0-2.41-1.15-3.62-3-3.62s-3.54,1.42-3.55,4A3.76,3.76,0,0,0,53,105.27a6.08,6.08,0,0,0,3.25-1l.79,1.43A7.92,7.92,0,0,1,52.73,107C49.36,107,46.7,104.88,46.71,101.18Z"/><path d="M68.25,107.49l.12-2h-.06a4.87,4.87,0,0,1-3.39,1.57c-2.86,0-4.76-2.14-4.75-5.82s2.4-5.84,5-5.83a4.54,4.54,0,0,1,3.34,1.49h.07l.21-1.21h1.79l0,15.64H68.24Zm0-3.78,0-5.26a3.75,3.75,0,0,0-2.63-1.14c-1.73,0-3.15,1.49-3.16,3.92s1.11,4,3,4A3.71,3.71,0,0,0,68.26,103.71Z"/><path d="M74.19,102.61l0-6.89h2.26l0,6.6c0,1.92.64,2.84,2.31,2.84,1.16,0,2-.51,3.11-1.82l0-7.6h2.27l0,11.1H82.26L82.08,105H82a5.24,5.24,0,0,1-4,2.11C75.35,107.1,74.18,105.5,74.19,102.61Z"/><path d="M87.64,101.29a5.6,5.6,0,0,1,5.72-5.79c3.25,0,5.1,2.15,5.1,5.26a9,9,0,0,1-.11,1.23l-9.14,0V100.3l7.73,0-.49.55c0-2.4-1.15-3.61-3-3.62s-3.54,1.43-3.55,4A3.75,3.75,0,0,0,94,105.38a6,6,0,0,0,3.25-1l.79,1.44a7.84,7.84,0,0,1-4.33,1.3C90.29,107.14,87.63,105,87.64,101.29Z"/><path d="M101.31,105.45l1-1.47a8.11,8.11,0,0,0,4.73,1.48c1.71,0,2.52-.68,2.53-1.51s-.46-1.29-3.26-1.87-4.3-1.64-4.3-3.32c0-1.86,1.68-3.23,4.76-3.22A8.51,8.51,0,0,1,111.34,97l-1.07,1.41a6.78,6.78,0,0,0-3.7-1.15c-1.65,0-2.29.65-2.29,1.41s.88,1.21,3.06,1.69c3.61.8,4.52,1.73,4.51,3.47s-1.81,3.38-5.09,3.37A9.86,9.86,0,0,1,101.31,105.45Z"/><path d="M118,102.56l0-4.91H114.9V96l3.15-.11.31-3.52h1.88v3.52h5.24v1.81h-5.24v4.91c0,1.91.67,2.84,2.68,2.84a7.08,7.08,0,0,0,2.53-.47l.45,1.66a10.42,10.42,0,0,1-3.51.64C119,107.23,117.94,105.34,118,102.56Z"/><path d="M128.63,99.69c0-4.88,2.06-7.47,5.32-7.46s5.29,2.61,5.27,7.49-2.06,7.56-5.31,7.55S128.62,104.53,128.63,99.69Zm8.52,0c0-4-1.34-5.67-3.21-5.68s-3.23,1.61-3.24,5.66,1.34,5.77,3.21,5.78S137.14,103.76,137.15,99.71Zm-4.71-.14A1.48,1.48,0,0,1,133.93,98a1.57,1.57,0,1,1-1.49,1.56Z"/><polygon class="cls-2" points="786.81 217.69 785.2 183.93 1027.76 138.94 1034.07 171.87 786.81 217.69"/><polygon class="cls-2" points="786.81 245.84 785.2 212.07 1027.76 167.09 1034.07 200.02 786.81 245.84"/><polygon class="cls-2" points="786.81 274.51 785.2 240.74 1027.76 195.76 1034.07 228.69 786.81 274.51"/><polygon class="cls-2" points="786.81 303.18 785.2 269.42 1027.76 224.43 1034.07 257.36 786.81 303.18"/><polygon class="cls-2" points="786.81 331.85 785.2 298.09 1027.76 253.11 1034.07 286.04 786.81 331.85"/><polygon class="cls-2" points="786.81 358.88 785.2 325.12 1027.76 280.14 1034.07 313.07 786.81 358.88"/><polygon class="cls-2" points="786.81 386.09 785.2 352.33 1027.76 307.35 1034.07 340.27 786.81 386.09"/><polygon class="cls-2" points="786.81 415.18 785.2 381.41 1027.76 336.43 1034.07 369.36 786.81 415.18"/><polygon class="cls-2" points="786.64 442.38 785.03 408.62 1027.59 363.64 1033.9 396.57 786.64 442.38"/><polygon class="cls-2" points="787.05 470.76 785.43 437 1028 392.02 1030.92 425.85 787.05 470.76"/><polygon class="cls-2" points="787.05 498.67 785.43 464.91 1028 419.93 1031.28 452.59 787.05 498.67"/><polygon class="cls-2" points="786.81 527.05 785.2 493.29 1027.76 448.31 1034.07 481.24 786.81 527.05"/><polygon class="cls-2" points="786.58 554.97 784.96 521.2 1027.52 476.22 1033.84 509.15 786.58 554.97"/><polygon class="cls-2" points="784.93 586.72 785.67 547.01 1028.23 504.6 1031.17 586.71 784.93 586.72"/><line class="cls-3" x1="786.33" y1="71.29" x2="786.33" y2="586.72"/><line class="cls-5" x1="1031.52" y1="71.29" x2="1031.52" y2="586.72"/><line class="cls-1" x1="786.93" y1="99.66" x2="1014.01" y2="128.71"/><path d="M1029.13,130.64c-7.45,1.73-16.86,5.11-22.94,9.18l5.83-11.37L1009.24,116C1014.1,121.46,1022.35,127.09,1029.13,130.64Z"/><line class="cls-1" x1="786.93" y1="129.02" x2="1014.01" y2="158.07"/><path d="M1029.13,160c-7.45,1.73-16.86,5.1-22.94,9.18l5.83-11.37-2.78-12.47C1014.1,150.82,1022.35,156.46,1029.13,160Z"/><line class="cls-1" x1="786.93" y1="158.05" x2="1014.01" y2="187.1"/><path d="M1029.13,189c-7.45,1.73-16.86,5.11-22.94,9.18l5.83-11.37-2.78-12.46C1014.1,179.85,1022.35,185.48,1029.13,189Z"/><line class="cls-1" x1="787.29" y1="186.32" x2="1014.36" y2="215.37"/><path d="M1029.49,217.3c-7.46,1.73-16.86,5.11-23,9.18l5.84-11.37-2.79-12.46C1014.46,208.12,1022.71,213.75,1029.49,217.3Z"/><line class="cls-1" x1="787.29" y1="214.97" x2="1014.36" y2="244.02"/><path d="M1029.49,246c-7.46,1.73-16.86,5.11-23,9.18l5.84-11.37-2.79-12.47C1014.46,236.77,1022.71,242.4,1029.49,246Z"/><line class="cls-1" x1="787.29" y1="243.61" x2="1014.36" y2="272.66"/><path d="M1029.49,274.6c-7.46,1.73-16.86,5.11-23,9.18l5.84-11.37-2.79-12.47C1014.46,265.42,1022.71,271.05,1029.49,274.6Z"/><line class="cls-1" x1="787.29" y1="272.26" x2="1014.36" y2="301.31"/><path d="M1029.49,303.25c-7.46,1.73-16.86,5.1-23,9.18l5.84-11.37-2.79-12.47C1014.46,294.06,1022.71,299.7,1029.49,303.25Z"/><line class="cls-1" x1="787.29" y1="300.91" x2="1014.36" y2="329.96"/><path d="M1029.49,331.9c-7.46,1.73-16.86,5.1-23,9.17l5.84-11.36-2.79-12.47C1014.46,322.71,1022.71,328.35,1029.49,331.9Z"/><line class="cls-1" x1="787.29" y1="329.56" x2="1014.36" y2="358.61"/><path d="M1029.49,360.54c-7.46,1.73-16.86,5.11-23,9.18l5.84-11.36-2.79-12.47C1014.46,351.36,1022.71,357,1029.49,360.54Z"/><line class="cls-1" x1="787.29" y1="358.21" x2="1014.36" y2="387.26"/><path d="M1029.49,389.19c-7.46,1.73-16.86,5.11-23,9.18l5.84-11.37-2.79-12.46C1014.46,380,1022.71,385.64,1029.49,389.19Z"/><line class="cls-1" x1="787.29" y1="386.86" x2="1014.36" y2="415.91"/><path d="M1029.49,417.84c-7.46,1.73-16.86,5.11-23,9.18l5.84-11.37-2.79-12.47C1014.46,408.66,1022.71,414.29,1029.49,417.84Z"/><line class="cls-1" x1="787.29" y1="415.5" x2="1014.36" y2="444.55"/><path d="M1029.49,446.49c-7.46,1.73-16.86,5.11-23,9.18l5.84-11.37-2.79-12.47C1014.46,437.3,1022.71,442.94,1029.49,446.49Z"/><line class="cls-1" x1="787.29" y1="444.15" x2="1014.36" y2="473.2"/><path d="M1029.49,475.14c-7.46,1.73-16.86,5.1-23,9.18l5.84-11.37-2.79-12.47C1014.46,466,1022.71,471.59,1029.49,475.14Z"/><line class="cls-1" x1="787.29" y1="472.8" x2="1014.36" y2="501.85"/><path d="M1029.49,503.79c-7.46,1.73-16.86,5.1-23,9.17l5.84-11.36-2.79-12.47C1014.46,494.6,1022.71,500.24,1029.49,503.79Z"/><line class="cls-1" x1="787.29" y1="505.69" x2="1014.36" y2="534.74"/><path d="M1029.49,536.67c-7.46,1.74-16.86,5.11-23,9.18l5.84-11.36L1009.59,522C1014.46,527.49,1022.71,533.13,1029.49,536.67Z"/><line class="cls-1" x1="787.29" y1="538.58" x2="1014.36" y2="567.63"/><path d="M1029.49,569.56c-7.46,1.73-16.86,5.11-23,9.18l5.84-11.37-2.79-12.46C1014.46,560.38,1022.71,566,1029.49,569.56Z"/><polygon points="945.12 584.2 965.91 586.72 931 586.72 928.95 586.72 926.13 586.72 924.98 586.57 920.9 586.09 920.62 586.05 916.58 585.56 912.53 585.07 819.41 573.84 815.35 573.35 811.3 572.86 786.97 569.93 787.61 565.2 827.39 570 831.45 570.49 835.5 570.98 928.61 582.21 932.66 582.7 936.71 583.19 937 583.23 941.06 583.72 945.12 584.2"/><path d="M1050.55,179.62h-.07l-.21,1.23h-1.79l0-16.11h2.26V169l-.11,2h.08a5.23,5.23,0,0,1,3.55-1.57c2.93,0,4.57,2.23,4.56,5.66,0,3.8-2.38,6-5,6A5.13,5.13,0,0,1,1050.55,179.62Zm6-4.46c0-2.33-.83-3.79-2.84-3.79a4.19,4.19,0,0,0-2.93,1.47l0,5.26a4.14,4.14,0,0,0,2.71,1.14C1055.19,179.25,1056.53,177.79,1056.54,175.16Z"/><path d="M1062.24,179h4.1l0-10h-3.23v-1.45a10.41,10.41,0,0,0,3.83-1.12h1.68l0,12.63h3.64v1.86l-10,0Z"/><path d="M1049.82,145.07h-.07l-.21,1.23h-1.79l0-16.12h2.26v4.27l-.11,2.05h.08a5.19,5.19,0,0,1,3.55-1.57c2.93,0,4.57,2.23,4.56,5.65,0,3.81-2.38,6-5,6A5.13,5.13,0,0,1,1049.82,145.07Zm6-4.46c0-2.33-.83-3.79-2.84-3.79a4.15,4.15,0,0,0-2.93,1.47l0,5.26a4.21,4.21,0,0,0,2.71,1.14C1054.46,144.7,1055.8,143.23,1055.81,140.61Z"/><path d="M1064.77,142.46l0-10.43H1061v-1.81l6.08,0,0,12.37a1.91,1.91,0,0,0,2.09,2.17,4.91,4.91,0,0,0,2-.46l.54,1.68a7.32,7.32,0,0,1-3.06.64C1066.1,146.62,1064.76,145.14,1064.77,142.46Z"/><path d="M1074.35,140.84a5.54,5.54,0,1,1,5.51,5.82A5.47,5.47,0,0,1,1074.35,140.84Zm8.75,0c0-2.4-1.24-4-3.21-4s-3.21,1.58-3.22,4,1.23,4,3.2,4S1083.09,143.24,1083.1,140.87Z"/><path d="M1088.45,140.88c0-3.72,2.89-5.84,6.27-5.83a5.77,5.77,0,0,1,4.07,1.61l-1.09,1.43a4.44,4.44,0,0,0-2.89-1.17,4,4,0,1,0-.08,7.93,5.24,5.24,0,0,0,3.3-1.3l1,1.46a6.78,6.78,0,0,1-4.45,1.7C1091.06,146.7,1088.44,144.56,1088.45,140.88Z"/><path d="M1102.59,130.34h2.27l0,10.48h.09l5.49-5.45H1113l-8.13,8.13v3h-2.27Zm4.34,10.46,1.34-1.44,5.18,7.13H1111Z"/><path d="M1115.52,139.21c0-4.88,2.06-7.46,5.32-7.45s5.29,2.6,5.27,7.48-2.06,7.56-5.32,7.55S1115.51,144.05,1115.52,139.21Zm8.52,0c0-4-1.33-5.67-3.2-5.68s-3.24,1.61-3.25,5.66,1.34,5.78,3.21,5.78S1124,143.29,1124,139.23Zm-4.71-.14a1.49,1.49,0,1,1,1.48,1.58A1.49,1.49,0,0,1,1119.33,139.09Z"/><path d="M1050.55,209.71h-.07l-.21,1.22h-1.79l0-16.12h2.26v4.28l-.11,2h.08a5.23,5.23,0,0,1,3.55-1.57c2.93,0,4.57,2.24,4.56,5.66,0,3.8-2.38,6-5,6A5.23,5.23,0,0,1,1050.55,209.71Zm6-4.47c0-2.32-.83-3.78-2.83-3.79a4.17,4.17,0,0,0-2.94,1.48l0,5.25a4.23,4.23,0,0,0,2.71,1.15C1055.19,209.33,1056.53,207.87,1056.54,205.24Z"/><path d="M1061.71,209.65c4.72-4.11,7.44-6.62,7.44-9,0-1.59-1-2.65-2.93-2.65a4.8,4.8,0,0,0-3.34,1.65l-1.27-1.27a6.52,6.52,0,0,1,4.9-2.21c3,0,4.82,1.75,4.82,4.37s-2.69,5.32-6.34,8.59c.89-.07,1.85-.12,2.68-.12h4.41V211l-10.38,0Z"/><path d="M1050.19,236.21h-.07l-.21,1.22h-1.79l.05-16.12h2.26v4.28l-.1,2h.07a5.23,5.23,0,0,1,3.55-1.57c2.93,0,4.57,2.23,4.56,5.66,0,3.8-2.38,6-5,6A5.23,5.23,0,0,1,1050.19,236.21Zm6-4.47c0-2.32-.83-3.78-2.83-3.79a4.21,4.21,0,0,0-2.94,1.47l0,5.26a4.23,4.23,0,0,0,2.71,1.15C1054.83,235.83,1056.17,234.37,1056.18,231.74Z"/><path d="M1061,235.69l1.11-1.45a5.75,5.75,0,0,0,4,1.65c1.87,0,3.26-.9,3.27-2.39s-1.33-2.67-5-2.68v-1.68c3.28,0,4.53-1.06,4.53-2.49s-1.1-2.1-2.73-2.1a5.26,5.26,0,0,0-3.44,1.39l-1.18-1.41a7.27,7.27,0,0,1,4.71-1.81c2.84,0,4.94,1.38,4.93,3.77,0,1.68-1.24,2.78-3,3.38v.1c1.9.43,3.49,1.68,3.49,3.65,0,2.6-2.46,4.14-5.39,4.14A7.1,7.1,0,0,1,1061,235.69Z"/><path d="M1050.19,265.21h-.07l-.21,1.23h-1.79l.05-16.12h2.27l0,4.28-.1,2h.07a5.19,5.19,0,0,1,3.55-1.57c2.94,0,4.57,2.23,4.56,5.65,0,3.81-2.38,6-5,6A5.13,5.13,0,0,1,1050.19,265.21Zm6-4.46c0-2.33-.83-3.79-2.83-3.79a4.17,4.17,0,0,0-2.94,1.47l0,5.26a4.21,4.21,0,0,0,2.71,1.14C1054.83,264.84,1056.17,263.37,1056.18,260.75Z"/><path d="M1068,256.92c0-.83.08-1.9.12-2.73h-.1c-.48.73-1,1.47-1.51,2.2l-3.48,4.44,9.22,0v1.79l-11.6,0v-1.52l6.95-9.09h2.55l-.05,14.49H1068Z"/><path d="M1050.55,293.5h-.07l-.21,1.23h-1.79l0-16.12h2.26v4.28l-.11,2h.08a5.14,5.14,0,0,1,3.55-1.57c2.93,0,4.57,2.23,4.56,5.65,0,3.81-2.38,6-5,6A5.13,5.13,0,0,1,1050.55,293.5Zm6-4.46c0-2.33-.83-3.79-2.84-3.79a4.15,4.15,0,0,0-2.93,1.47l0,5.26a4.19,4.19,0,0,0,2.71,1.14C1055.19,293.13,1056.53,291.66,1056.54,289Z"/><path d="M1061.35,293l1.09-1.47a5.63,5.63,0,0,0,3.9,1.62c1.93,0,3.44-1.14,3.45-3s-1.33-2.92-3.3-2.93a5.12,5.12,0,0,0-2.82.82l-1.13-.72.48-7.06,8.37,0v1.95l-6.4,0-.36,3.86a6,6,0,0,1,2.48-.51c2.75,0,5,1.42,5,4.54s-2.63,4.94-5.45,4.93A7.35,7.35,0,0,1,1061.35,293Z"/><path d="M1050.91,322.51h-.07l-.21,1.23h-1.79l.05-16.12h2.26v4.27l-.11,2.05h.08a5.14,5.14,0,0,1,3.54-1.57c2.94,0,4.58,2.23,4.57,5.65,0,3.81-2.39,6-5,6A5.11,5.11,0,0,1,1050.91,322.51Zm6-4.46c0-2.33-.84-3.79-2.84-3.8a4.21,4.21,0,0,0-2.93,1.48l0,5.25a4.16,4.16,0,0,0,2.71,1.15C1055.55,322.14,1056.89,320.67,1056.9,318.05Z"/><path d="M1062.16,317c0-5.71,3-8,6.14-8a6,6,0,0,1,4.18,1.61l-1.23,1.39a4.19,4.19,0,0,0-2.8-1.14c-2.23,0-4.17,1.55-4.18,6.13,0,3.58,1.34,5.29,3.48,5.3a2.79,2.79,0,0,0,2.84-3,2.55,2.55,0,0,0-2.82-2.83,4.73,4.73,0,0,0-3.54,1.91l-.08-1.66a6,6,0,0,1,4.06-1.9c2.64,0,4.51,1.49,4.5,4.49a4.73,4.73,0,0,1-4.94,4.69C1064.66,324.05,1062.15,321.78,1062.16,317Z"/><path d="M1051.27,350.8h-.07L1051,352h-1.78l0-16.12h2.26v4.27l-.11,2h.07a5.19,5.19,0,0,1,3.55-1.56c2.94,0,4.58,2.23,4.57,5.65,0,3.8-2.39,6-5,6A5.09,5.09,0,0,1,1051.27,350.8Zm6-4.46c0-2.33-.84-3.79-2.84-3.8a4.25,4.25,0,0,0-2.94,1.48v5.25a4.16,4.16,0,0,0,2.71,1.15C1055.91,350.42,1057.25,349,1057.26,346.34Z"/><path d="M1070.49,339.54l-8.06,0v-1.94l10.59,0V339c-3.81,4.28-4.66,7.41-4.92,13.08h-2.34C1066.05,346.77,1067.25,343.51,1070.49,339.54Z"/><path d="M1050.91,378h-.07l-.21,1.23h-1.79l.05-16.12h2.26v4.28l-.11,2h.08a5.23,5.23,0,0,1,3.54-1.57c2.94,0,4.58,2.23,4.57,5.66,0,3.8-2.39,6-5,6A5.18,5.18,0,0,1,1050.91,378Zm6-4.46c0-2.33-.84-3.79-2.84-3.79a4.19,4.19,0,0,0-2.93,1.47l0,5.26a4.21,4.21,0,0,0,2.71,1.15C1055.55,377.64,1056.89,376.18,1056.9,373.55Z"/><path d="M1062,375.57c0-1.94,1.48-3,3-3.77v-.09a4.08,4.08,0,0,1-2.17-3.4c0-2.28,1.94-3.79,4.6-3.78,2.85,0,4.56,1.62,4.55,3.91a4.36,4.36,0,0,1-2.18,3.36v.1c1.57.79,2.8,1.74,2.8,3.78s-1.92,3.9-5.29,3.89S1062,377.88,1062,375.57Zm8.49,0c0-1.82-1.86-2.33-4.26-3.15-1.26.7-2.21,1.59-2.21,2.91,0,1.5,1.34,2.56,3.38,2.57S1070.48,377,1070.49,375.59Zm-.4-7a2.38,2.38,0,0,0-2.68-2.37,2.21,2.21,0,0,0-2.51,2.14c0,1.58,1.53,2.27,3.57,2.94A3.51,3.51,0,0,0,1070.09,368.55Z"/><path d="M1050.91,407h-.07l-.21,1.23h-1.79l.05-16.12h2.26v4.27l-.11,2.05h.08a5.14,5.14,0,0,1,3.54-1.57c2.94,0,4.58,2.23,4.57,5.65,0,3.81-2.39,6-5,6A5.11,5.11,0,0,1,1050.91,407Zm6-4.46c0-2.33-.84-3.79-2.84-3.8a4.21,4.21,0,0,0-2.93,1.48l0,5.26a4.19,4.19,0,0,0,2.71,1.14C1055.55,406.65,1056.89,405.18,1056.9,402.56Z"/><path d="M1062.19,407l1.24-1.39a4.23,4.23,0,0,0,2.79,1.12c2.22,0,4.17-1.55,4.19-6.14,0-3.57-1.37-5.26-3.49-5.27a2.76,2.76,0,0,0-2.85,2.94,2.54,2.54,0,0,0,2.83,2.82,4.66,4.66,0,0,0,3.52-1.9l.09,1.66a5.89,5.89,0,0,1-4.07,1.9c-2.64,0-4.49-1.49-4.48-4.49a4.72,4.72,0,0,1,4.93-4.69c3.11,0,5.64,2.27,5.62,7,0,5.71-3,8-6.13,8A6.1,6.1,0,0,1,1062.19,407Z"/><path d="M1050.55,435.67h-.07l-.21,1.23h-1.79l0-16.12h2.26v4.27l-.11,2.05h.08a5.14,5.14,0,0,1,3.55-1.57c2.93,0,4.57,2.23,4.56,5.65,0,3.81-2.38,6-5,6A5.13,5.13,0,0,1,1050.55,435.67Zm6-4.46c0-2.33-.83-3.79-2.84-3.8a4.21,4.21,0,0,0-2.93,1.48l0,5.25a4.18,4.18,0,0,0,2.71,1.15C1055.19,435.3,1056.53,433.83,1056.54,431.21Z"/><path d="M1062.24,435.07h4.1l0-10h-3.23v-1.45a10.41,10.41,0,0,0,3.83-1.12h1.68l0,12.63h3.64V437l-10,0Z"/><path d="M1075.32,429.68c0-4.88,2.06-7.46,5.32-7.45s5.29,2.6,5.27,7.48-2.06,7.56-5.32,7.55S1075.31,434.52,1075.32,429.68Zm8.52,0c0-4.06-1.33-5.68-3.21-5.68s-3.23,1.6-3.24,5.66,1.34,5.77,3.21,5.77S1083.83,433.76,1083.84,429.71Zm-4.71-.15a1.49,1.49,0,1,1,1.48,1.58A1.47,1.47,0,0,1,1079.13,429.56Z"/><path d="M1051.27,465.75h-.07L1051,467h-1.79l0-16.12h2.26v4.27l-.11,2.05h.07a5.18,5.18,0,0,1,3.55-1.57c2.94,0,4.58,2.23,4.57,5.65,0,3.8-2.39,6-5,6A5.11,5.11,0,0,1,1051.27,465.75Zm6-4.46c0-2.33-.84-3.79-2.84-3.8a4.21,4.21,0,0,0-2.93,1.48l0,5.25a4.16,4.16,0,0,0,2.71,1.15C1055.91,465.37,1057.25,463.91,1057.26,461.29Z"/><path d="M1063,465.15h4.11l0-10h-3.24v-1.45a10.29,10.29,0,0,0,3.82-1.12h1.68l0,12.63H1073V467l-10,0Z"/><path d="M1076.6,465.19l4.1,0,0-10h-3.23V453.7a10.35,10.35,0,0,0,3.83-1.12H1083l0,12.62h3.65v1.86l-10,0Z"/><path d="M1050.91,493.68h-.07l-.21,1.23h-1.79l.05-16.12h2.26v4.27l-.11,2.05h.08a5.14,5.14,0,0,1,3.54-1.57c2.94,0,4.58,2.23,4.57,5.65,0,3.81-2.39,6-5,6A5.11,5.11,0,0,1,1050.91,493.68Zm6-4.46c0-2.33-.84-3.79-2.84-3.79a4.15,4.15,0,0,0-2.93,1.47l0,5.26a4.19,4.19,0,0,0,2.71,1.14C1055.55,493.31,1056.89,491.84,1056.9,489.22Z"/><path d="M1062.59,493.08l4.11,0,0-10.05h-3.24v-1.45a10.29,10.29,0,0,0,3.82-1.12H1069l0,12.62h3.64V495l-10,0Z"/><path d="M1075.71,493.66c4.72-4.1,7.44-6.61,7.44-8.94,0-1.59-1-2.65-2.93-2.66a4.84,4.84,0,0,0-3.33,1.65l-1.27-1.26a6.47,6.47,0,0,1,4.89-2.21c3,0,4.82,1.75,4.82,4.37s-2.69,5.32-6.34,8.59c.89-.07,1.85-.12,2.68-.12h4.41V495l-10.38,0Z"/><path d="M1050.55,525.28h-.07l-.21,1.23h-1.79l0-16.12h2.26v4.28l-.11,2h.08a5.19,5.19,0,0,1,3.55-1.57c2.93,0,4.57,2.23,4.56,5.66,0,3.8-2.38,6-5,6A5.13,5.13,0,0,1,1050.55,525.28Zm6-4.46c0-2.33-.83-3.79-2.84-3.79a4.15,4.15,0,0,0-2.93,1.47l0,5.26a4.19,4.19,0,0,0,2.71,1.14C1055.19,524.91,1056.53,523.45,1056.54,520.82Z"/><path d="M1062.24,524.68l4.1,0,0-10.05h-3.24v-1.45a10.29,10.29,0,0,0,3.82-1.12h1.69l0,12.62,3.64,0v1.86l-10,0Z"/><path d="M1075,524.81l1.11-1.45a5.75,5.75,0,0,0,4,1.65c1.87,0,3.26-.9,3.27-2.39s-1.33-2.67-5-2.68v-1.68c3.28,0,4.53-1.06,4.54-2.49s-1.11-2.1-2.74-2.1a5.21,5.21,0,0,0-3.44,1.39l-1.18-1.41a7.27,7.27,0,0,1,4.71-1.81c2.84,0,4.94,1.38,4.93,3.77,0,1.68-1.24,2.78-3,3.38v.1c1.9.43,3.5,1.68,3.49,3.65,0,2.6-2.46,4.14-5.39,4.13A7.05,7.05,0,0,1,1075,524.81Z"/><path d="M1050.91,554.17h-.07l-.21,1.23h-1.79l.05-16.12h2.26v4.28l-.11,2h.08a5.23,5.23,0,0,1,3.54-1.57c2.94,0,4.58,2.23,4.57,5.66,0,3.8-2.39,6-5,6A5.11,5.11,0,0,1,1050.91,554.17Zm6-4.46c0-2.33-.84-3.79-2.84-3.79a4.15,4.15,0,0,0-2.93,1.47l0,5.26a4.19,4.19,0,0,0,2.71,1.14C1055.55,553.8,1056.89,552.34,1056.9,549.71Z"/><path d="M1062.59,553.58h4.11l0-10.05h-3.24v-1.45a10.29,10.29,0,0,0,3.82-1.12H1069l0,12.62,3.64,0v1.86l-10,0Z"/><path d="M1082.37,545.92c0-.83.08-1.9.12-2.73h-.11c-.47.74-1,1.47-1.5,2.2l-3.48,4.44,9.22,0v1.79l-11.6,0v-1.53l7-9.08h2.54l0,14.49h-2.12Z"/><path d="M1050.91,584.78h-.07l-.21,1.23h-1.79l.05-16.12h2.26v4.28l-.11,2h.08a5.23,5.23,0,0,1,3.54-1.57c2.94,0,4.58,2.23,4.57,5.66,0,3.8-2.39,6-5,6A5.18,5.18,0,0,1,1050.91,584.78Zm6-4.46c0-2.33-.84-3.79-2.84-3.79a4.19,4.19,0,0,0-2.93,1.47l0,5.26a4.14,4.14,0,0,0,2.71,1.14C1055.55,584.41,1056.89,583,1056.9,580.32Z"/><path d="M1062.59,584.19h4.11l0-10.05h-3.24v-1.45a10.1,10.1,0,0,0,3.82-1.12H1069l0,12.63h3.64v1.86l-10,0Z"/><path d="M1075.35,584.37l1.09-1.47a5.58,5.58,0,0,0,3.91,1.61c1.92,0,3.44-1.13,3.44-3s-1.32-2.93-3.3-2.93a5,5,0,0,0-2.82.82l-1.13-.73.48-7.06,8.37,0v1.94l-6.4,0-.36,3.87a6,6,0,0,1,2.48-.52c2.75,0,5,1.43,5,4.55s-2.63,4.94-5.45,4.93A7.35,7.35,0,0,1,1075.35,584.37Z"/><path d="M116.82,214.21h1.87l.2,2.58h0a5.68,5.68,0,0,1,4.85-2.84,4.76,4.76,0,0,1,2.18.47l-.5,1.92a5.47,5.47,0,0,0-2-.36c-1.59,0-3.12.8-4.36,3l0,6.3h-2.27Z"/><path d="M129.41,223.49h4.11l0-10h-3.24V212a10.35,10.35,0,0,0,3.83-1.12h1.68l0,12.62h3.65v1.87l-10,0Z"/><path d="M665.26,92.05h1.87l.2,2.57h0a5.68,5.68,0,0,1,4.85-2.83,4.63,4.63,0,0,1,2.18.46l-.5,1.92a5.67,5.67,0,0,0-2-.36c-1.6,0-3.13.8-4.37,3l0,6.31h-2.26Z"/><path d="M677.24,97.62A5.6,5.6,0,0,1,683,91.83c3.26,0,5.11,2.15,5.1,5.26a7.76,7.76,0,0,1-.11,1.23l-9.14,0V96.63l7.73,0-.5.55c0-2.4-1.15-3.61-3-3.62s-3.55,1.43-3.55,4a3.74,3.74,0,0,0,4.08,4.08,6,6,0,0,0,3.25-1l.79,1.44a7.79,7.79,0,0,1-4.33,1.3C679.88,103.47,677.23,101.32,677.24,97.62Z"/><path d="M698.78,103.93l.11-2h0a5,5,0,0,1-3.39,1.57c-2.87,0-4.76-2.14-4.75-5.82s2.4-5.84,5-5.84a4.51,4.51,0,0,1,3.33,1.5h.08l.21-1.21h1.79L701,107.8h-2.26Zm0-3.78V94.9a3.72,3.72,0,0,0-2.62-1.15c-1.73,0-3.16,1.5-3.16,3.93s1.11,3.95,3,3.95A3.68,3.68,0,0,0,698.79,100.15Z"/><path d="M704.71,99.05l0-6.89H707l0,6.59c0,1.92.63,2.84,2.3,2.85,1.16,0,2-.51,3.12-1.83l0-7.6h2.26l0,11.11h-1.87l-.17-1.85h-.09a5.22,5.22,0,0,1-4,2.11C705.87,103.55,704.7,102,704.71,99.05Z"/><path d="M718.17,97.74a5.61,5.61,0,0,1,5.71-5.8c3.26,0,5.11,2.16,5.1,5.26a7.54,7.54,0,0,1-.11,1.23l-9.14,0V96.75l7.73,0-.49.55c0-2.41-1.16-3.62-3-3.62s-3.55,1.42-3.55,4a3.75,3.75,0,0,0,4.08,4.09,6.05,6.05,0,0,0,3.25-1l.79,1.43a7.87,7.87,0,0,1-4.33,1.31C720.81,103.59,718.16,101.44,718.17,97.74Z"/><path d="M731.84,101.89l1-1.46a8.09,8.09,0,0,0,4.73,1.47c1.7,0,2.52-.67,2.52-1.51s-.46-1.28-3.25-1.87-4.31-1.63-4.3-3.31c0-1.86,1.68-3.24,4.75-3.23a8.49,8.49,0,0,1,4.56,1.46l-1.06,1.41a6.62,6.62,0,0,0-3.7-1.15c-1.65,0-2.3.64-2.3,1.41s.89,1.21,3.07,1.68c3.61.8,4.51,1.74,4.51,3.47s-1.81,3.39-5.09,3.38A10,10,0,0,1,731.84,101.89Z"/><path d="M748.48,99V94.09h-3.06V92.39l3.15-.1.31-3.52h1.88v3.52l5.24,0v1.8h-5.24l0,4.91c0,1.91.67,2.84,2.68,2.85a7.26,7.26,0,0,0,2.53-.47l.46,1.65a10.2,10.2,0,0,1-3.52.64C749.57,103.67,748.47,101.79,748.48,99Z"/><path d="M759.16,96.13c0-4.88,2.06-7.46,5.31-7.45s5.29,2.6,5.28,7.48-2.06,7.56-5.32,7.55S759.14,101,759.16,96.13Zm8.52,0c0-4.05-1.34-5.67-3.21-5.67s-3.23,1.6-3.24,5.66,1.34,5.77,3.21,5.77S767.67,100.21,767.68,96.15ZM763,96a1.49,1.49,0,1,1,1.48,1.58A1.46,1.46,0,0,1,763,96Z"/><path d="M747.46,120.52h1.88l.19,2.57h.06a5.66,5.66,0,0,1,4.85-2.83,4.59,4.59,0,0,1,2.17.46l-.5,1.92a5.59,5.59,0,0,0-2-.36c-1.59,0-3.13.8-4.37,3v6.31h-2.27Z"/><path d="M760.06,129.8l4.1,0,0-10H761v-1.45a10.41,10.41,0,0,0,3.83-1.12h1.68l0,12.62,3.65,0v1.86l-10,0Z"/><path d="M747.46,148.8h1.88l.19,2.57h.06a5.66,5.66,0,0,1,4.85-2.83,4.59,4.59,0,0,1,2.17.46l-.5,1.92a5.63,5.63,0,0,0-2-.36c-1.59,0-3.13.8-4.37,3l0,6.31h-2.26Z"/><path d="M759.53,158.62c4.72-4.1,7.43-6.61,7.44-8.94,0-1.59-1-2.65-2.93-2.65a4.8,4.8,0,0,0-3.34,1.65l-1.27-1.27a6.52,6.52,0,0,1,4.9-2.21c2.95,0,4.82,1.75,4.81,4.37s-2.68,5.32-6.33,8.59c.89-.07,1.85-.12,2.68-.12h4.41V160l-10.37,0Z"/><path d="M747.46,175.82h1.88l.19,2.58h.06a5.66,5.66,0,0,1,4.85-2.83,4.59,4.59,0,0,1,2.17.46l-.5,1.92a5.63,5.63,0,0,0-2-.36c-1.59,0-3.13.8-4.37,3l0,6.3h-2.26Z"/><path d="M759.16,185.19l1.12-1.45a5.73,5.73,0,0,0,4,1.65c1.88,0,3.27-.91,3.27-2.39s-1.32-2.67-5-2.69v-1.67c3.27,0,4.53-1.07,4.53-2.49s-1.1-2.1-2.73-2.11a5.32,5.32,0,0,0-3.45,1.4L759.71,174a7.16,7.16,0,0,1,4.71-1.81c2.84,0,4.93,1.38,4.93,3.77,0,1.68-1.24,2.78-3,3.38v.09c1.9.43,3.49,1.69,3.49,3.65,0,2.6-2.46,4.15-5.39,4.14A7.13,7.13,0,0,1,759.16,185.19Z"/><path d="M747.46,205.36h1.88l.19,2.58h.06a5.67,5.67,0,0,1,4.85-2.84,4.59,4.59,0,0,1,2.17.46l-.5,1.93a5.63,5.63,0,0,0-2-.37c-1.59,0-3.13.81-4.37,3.05v6.3h-2.27Z"/><path d="M766.19,207c0-.83.07-1.89.12-2.72h-.11c-.48.73-1,1.46-1.51,2.2l-3.47,4.44,9.22,0v1.8l-11.61,0v-1.53l6.95-9.08h2.54l0,14.49h-2.12Z"/><path d="M747.46,234.91h1.88l.19,2.58h.06a5.66,5.66,0,0,1,4.85-2.83,4.59,4.59,0,0,1,2.17.46l-.5,1.92a5.63,5.63,0,0,0-2-.36c-1.59,0-3.13.8-4.37,3l0,6.3h-2.26Z"/><path d="M759.17,244.34l1.08-1.48a5.67,5.67,0,0,0,3.91,1.62c1.93,0,3.44-1.14,3.45-3s-1.33-2.92-3.3-2.93a5.12,5.12,0,0,0-2.82.82l-1.13-.72.48-7.06,8.37,0v1.94l-6.4,0-.36,3.86a6.13,6.13,0,0,1,2.48-.51c2.74,0,5,1.42,5,4.54s-2.63,4.94-5.46,4.93A7.36,7.36,0,0,1,759.17,244.34Z"/><path d="M747.46,264.45h1.88l.19,2.58h.06a5.67,5.67,0,0,1,4.85-2.84,4.59,4.59,0,0,1,2.17.46l-.5,1.93a5.63,5.63,0,0,0-2-.37c-1.59,0-3.13.81-4.37,3v6.31h-2.27Z"/><path d="M759.63,268.84c0-5.7,3-8,6.13-8a5.92,5.92,0,0,1,4.18,1.61l-1.23,1.39a4.19,4.19,0,0,0-2.8-1.14c-2.23,0-4.17,1.55-4.18,6.13,0,3.58,1.34,5.29,3.48,5.29a2.77,2.77,0,0,0,2.84-2.95,2.54,2.54,0,0,0-2.82-2.83,4.7,4.7,0,0,0-3.53,1.91l-.09-1.66a6,6,0,0,1,4.07-1.9c2.64,0,4.5,1.49,4.49,4.49a4.72,4.72,0,0,1-4.94,4.69C762.12,275.88,759.61,273.61,759.63,268.84Z"/><path d="M747.46,292.73h1.88l.19,2.58h.06a5.67,5.67,0,0,1,4.85-2.84,4.71,4.71,0,0,1,2.17.46l-.5,1.93a5.42,5.42,0,0,0-2-.36c-1.59,0-3.13.8-4.37,3l0,6.3h-2.26Z"/><path d="M767.59,291.36l-8.06,0v-1.94l10.59,0v1.4c-3.81,4.28-4.66,7.41-4.92,13.08h-2.33C763.15,298.59,764.36,295.33,767.59,291.36Z"/><path d="M747.46,319.75h1.88l.19,2.58h.06a5.67,5.67,0,0,1,4.85-2.84,4.59,4.59,0,0,1,2.17.46l-.5,1.93a5.63,5.63,0,0,0-2-.37c-1.59,0-3.13.81-4.37,3v6.31h-2.27Z"/><path d="M759.47,327.2c0-1.94,1.47-3.05,3-3.77v-.09a4.11,4.11,0,0,1-2.17-3.4c0-2.29,1.94-3.79,4.61-3.79,2.85,0,4.55,1.62,4.55,3.91a4.43,4.43,0,0,1-2.19,3.37v.09c1.58.79,2.81,1.75,2.8,3.78,0,2.19-1.92,3.9-5.29,3.89S759.46,329.51,759.47,327.2Zm8.48,0c0-1.83-1.86-2.33-4.26-3.16-1.26.7-2.2,1.59-2.21,2.91,0,1.51,1.35,2.56,3.38,2.57S768,328.64,768,327.22Zm-.4-7a2.38,2.38,0,0,0-2.68-2.38,2.22,2.22,0,0,0-2.51,2.14c0,1.59,1.53,2.28,3.57,2.94A3.46,3.46,0,0,0,767.55,320.18Z"/><path d="M747.46,350.56h1.88l.19,2.57h.06a5.66,5.66,0,0,1,4.85-2.83,4.59,4.59,0,0,1,2.17.46l-.5,1.92a5.63,5.63,0,0,0-2-.36c-1.59,0-3.13.8-4.37,3l0,6.31h-2.26Z"/><path d="M759.65,360.4l1.24-1.39a4.18,4.18,0,0,0,2.79,1.12c2.22,0,4.17-1.55,4.19-6.13,0-3.58-1.36-5.27-3.49-5.28a2.76,2.76,0,0,0-2.85,2.94,2.55,2.55,0,0,0,2.84,2.83,4.71,4.71,0,0,0,3.51-1.91l.09,1.66a5.85,5.85,0,0,1-4.07,1.9c-2.64,0-4.49-1.49-4.48-4.49a4.72,4.72,0,0,1,4.93-4.69c3.11,0,5.64,2.28,5.62,7,0,5.71-3,8-6.13,8A6,6,0,0,1,759.65,360.4Z"/><path d="M733.82,381.33h1.88l.19,2.58h.05a5.69,5.69,0,0,1,4.85-2.84,4.76,4.76,0,0,1,2.18.47l-.5,1.92a5.67,5.67,0,0,0-2-.36c-1.6,0-3.13.8-4.37,3l0,6.3h-2.26Z"/><path d="M746.41,390.61l4.11,0,0-10.05h-3.24v-1.45a10.29,10.29,0,0,0,3.82-1.12h1.68l0,12.62h3.65v1.87l-10,0Z"/><path d="M759.5,385.22c0-4.88,2.06-7.46,5.32-7.45s5.29,2.61,5.27,7.48-2.06,7.56-5.32,7.55S759.48,390.06,759.5,385.22Zm8.52,0c0-4.06-1.34-5.68-3.21-5.68s-3.23,1.6-3.24,5.66,1.34,5.77,3.21,5.77S768,389.3,768,385.25Zm-4.71-.15a1.49,1.49,0,1,1,1.48,1.59A1.49,1.49,0,0,1,763.31,385.1Z"/><path d="M733.82,410.87h1.87l.2,2.57h.05a5.68,5.68,0,0,1,4.85-2.83,4.63,4.63,0,0,1,2.18.46l-.5,1.92a5.67,5.67,0,0,0-2-.36c-1.6,0-3.13.8-4.37,3l0,6.31h-2.26Z"/><path d="M746.41,420.16h4.11l0-10.05h-3.24v-1.45a10.16,10.16,0,0,0,3.82-1.12h1.68l0,12.63h3.65v1.86l-10,0Z"/><path d="M760.06,420.2h4.1l0-10H761v-1.45a10.41,10.41,0,0,0,3.83-1.12h1.68l0,12.63h3.64v1.86l-10,0Z"/><path d="M733.82,440.42h1.88l.19,2.58h.05a5.66,5.66,0,0,1,4.85-2.83,4.63,4.63,0,0,1,2.18.46l-.5,1.92a5.67,5.67,0,0,0-2-.36c-1.6,0-3.13.8-4.37,3l0,6.3h-2.26Z"/><path d="M746.41,449.7l4.11,0,0-10.05h-3.24v-1.45a10.29,10.29,0,0,0,3.82-1.12h1.68l0,12.62h3.65v1.86l-10,0Z"/><path d="M759.53,450.28c4.72-4.1,7.44-6.61,7.44-8.94,0-1.59-1-2.65-2.93-2.66a4.89,4.89,0,0,0-3.34,1.65l-1.27-1.26a6.49,6.49,0,0,1,4.9-2.21c2.95,0,4.82,1.75,4.81,4.37s-2.68,5.32-6.33,8.59c.89-.07,1.85-.12,2.68-.12h4.41v1.93l-10.38,0Z"/><path d="M733.82,470h1.87l.2,2.57h.05a5.67,5.67,0,0,1,4.85-2.83,4.63,4.63,0,0,1,2.18.46l-.5,1.92a5.68,5.68,0,0,0-2-.36c-1.59,0-3.12.8-4.36,3l0,6.31h-2.26Z"/><path d="M746.41,479.25h4.11l0-10.05h-3.24v-1.45a10.35,10.35,0,0,0,3.82-1.12h1.68l0,12.63h3.65v1.86l-10,0Z"/><path d="M759.16,479.37l1.11-1.45a5.73,5.73,0,0,0,4,1.65c1.88,0,3.27-.9,3.27-2.39s-1.32-2.67-5-2.68v-1.68c3.27,0,4.53-1.06,4.53-2.49s-1.1-2.1-2.74-2.1a5.3,5.3,0,0,0-3.44,1.39l-1.17-1.4a7.22,7.22,0,0,1,4.71-1.82c2.84,0,4.93,1.38,4.92,3.77,0,1.68-1.23,2.78-3,3.39v.09c1.9.43,3.49,1.68,3.49,3.65,0,2.6-2.46,4.14-5.39,4.14A7.14,7.14,0,0,1,759.16,479.37Z"/><path d="M733.82,499.51h1.88l.19,2.58h.05a5.66,5.66,0,0,1,4.85-2.83,4.63,4.63,0,0,1,2.18.46l-.5,1.92a5.67,5.67,0,0,0-2-.36c-1.6,0-3.13.8-4.37,3l0,6.3h-2.26Z"/><path d="M746.41,508.79h4.11l0-10h-3.24V497.3a10.29,10.29,0,0,0,3.82-1.12h1.68l0,12.63h3.65v1.86l-10,0Z"/><path d="M766.19,501.14c0-.83.07-1.9.12-2.73h-.11c-.48.73-1,1.47-1.51,2.2l-3.47,4.44,9.22,0v1.79l-11.61,0v-1.52l6.95-9.09h2.54l0,14.49h-2.12Z"/><path d="M733.82,529.05h1.87l.2,2.57h.05a5.67,5.67,0,0,1,4.85-2.83,4.63,4.63,0,0,1,2.18.46l-.5,1.92a5.68,5.68,0,0,0-2-.36c-1.59,0-3.12.8-4.36,3l0,6.31h-2.26Z"/><path d="M746.41,538.34h4.11l0-10.05h-3.24v-1.45a10.16,10.16,0,0,0,3.82-1.12h1.68l0,12.63h3.65v1.86l-10,0Z"/><path d="M759.17,538.52l1.08-1.47a5.62,5.62,0,0,0,3.91,1.61c1.93,0,3.44-1.13,3.45-3s-1.33-2.92-3.3-2.92a5,5,0,0,0-2.82.82l-1.13-.73.48-7.06,8.37,0v1.94l-6.4,0-.36,3.87a6,6,0,0,1,2.48-.52c2.74,0,5,1.43,5,4.55s-2.63,4.93-5.46,4.93A7.32,7.32,0,0,1,759.17,538.52Z"/><path d="M733.82,558.59h1.87l.2,2.58h.05a5.68,5.68,0,0,1,4.85-2.84,4.76,4.76,0,0,1,2.18.47l-.5,1.92a5.47,5.47,0,0,0-2-.36c-1.59,0-3.12.8-4.36,3l0,6.3h-2.26Z"/><path d="M746.41,567.88h4.11l0-10h-3.24v-1.45a10.35,10.35,0,0,0,3.82-1.12h1.68l0,12.63h3.65v1.86l-10,0Z"/><path d="M759.62,563c0-5.71,3-8,6.14-8a6,6,0,0,1,4.18,1.61L768.71,558a4.24,4.24,0,0,0-2.8-1.14c-2.23,0-4.17,1.55-4.18,6.14,0,3.57,1.34,5.28,3.48,5.29a2.78,2.78,0,0,0,2.84-3,2.54,2.54,0,0,0-2.82-2.83,4.63,4.63,0,0,0-3.53,1.91l-.09-1.66a6,6,0,0,1,4.06-1.91c2.65,0,4.51,1.49,4.5,4.49a4.72,4.72,0,0,1-4.94,4.69C762.12,570.06,759.61,567.8,759.62,563Z"/><path d="M115.55,333.32h1.88l.19,2.57h.06a5.66,5.66,0,0,1,4.85-2.83,4.59,4.59,0,0,1,2.17.46l-.5,1.92a5.81,5.81,0,0,0-2-.36c-1.59,0-3.13.8-4.36,3l0,6.31h-2.27Z"/><path d="M127.62,343.15c4.72-4.11,7.44-6.62,7.44-8.94,0-1.6-.95-2.66-2.93-2.66a4.84,4.84,0,0,0-3.34,1.65l-1.27-1.27a6.56,6.56,0,0,1,4.9-2.21c3,0,4.82,1.75,4.81,4.38s-2.68,5.32-6.33,8.58c.89-.07,1.85-.12,2.68-.12l4.41,0v1.92l-10.38,0Z"/><path d="M418.25,160.2h-.08l-.21,1.23h-1.79l.05-16.12h2.27v4.28l-.11,2h.07a5.2,5.2,0,0,1,3.55-1.57c2.94,0,4.57,2.23,4.56,5.66,0,3.8-2.38,6-5,6A5.09,5.09,0,0,1,418.25,160.2Zm6-4.46c0-2.33-.83-3.79-2.83-3.79a4.17,4.17,0,0,0-2.94,1.47v5.26a4.19,4.19,0,0,0,2.7,1.14C422.89,159.83,424.23,158.37,424.23,155.74Z"/><path d="M433.19,157.59l0-10.43h-3.82v-1.81l6.09,0,0,12.37a1.9,1.9,0,0,0,2.08,2.17,4.91,4.91,0,0,0,2-.46l.54,1.68a7.29,7.29,0,0,1-3.06.64C434.52,161.75,433.19,160.27,433.19,157.59Z"/><path d="M442.77,156a5.54,5.54,0,1,1,5.52,5.83A5.49,5.49,0,0,1,442.77,156Zm8.75,0c0-2.4-1.23-4-3.2-4s-3.22,1.58-3.23,4,1.24,4,3.21,4S451.51,158.37,451.52,156Z"/><path d="M456.87,156c0-3.72,2.9-5.83,6.28-5.82a5.74,5.74,0,0,1,4.07,1.6l-1.1,1.43a4.39,4.39,0,0,0-2.88-1.17,3.81,3.81,0,0,0-4.05,4,3.75,3.75,0,0,0,4,4,5.22,5.22,0,0,0,3.3-1.3l1,1.46a6.77,6.77,0,0,1-4.46,1.7C459.48,161.83,456.86,159.69,456.87,156Z"/><path d="M471,145.47h2.26l0,10.48h.09l5.49-5.45h2.55l-8.14,8.13v3H471Zm4.33,10.46,1.35-1.44,5.18,7.14h-2.5Z"/><path d="M484,154.34c0-4.88,2.06-7.46,5.32-7.45s5.28,2.6,5.27,7.48-2.06,7.56-5.32,7.55S483.93,159.18,484,154.34Zm8.52,0c0-4.05-1.34-5.67-3.21-5.67s-3.23,1.6-3.24,5.65,1.33,5.78,3.21,5.78S492.46,158.42,492.47,154.36Zm-4.71-.14a1.49,1.49,0,1,1,1.48,1.58A1.47,1.47,0,0,1,487.76,154.22Z"/><path d="M419.47,280.87h-.07l-.21,1.22H417.4l.05-16.12h2.26v4.27l-.1,2h.07a5.14,5.14,0,0,1,3.55-1.57c2.93,0,4.57,2.23,4.56,5.65,0,3.8-2.38,6-5,6A5.13,5.13,0,0,1,419.47,280.87Zm6-4.47c0-2.32-.83-3.78-2.83-3.79a4.23,4.23,0,0,0-2.94,1.48l0,5.25a4.18,4.18,0,0,0,2.71,1.15C424.11,280.49,425.45,279,425.46,276.4Z"/><path d="M431.16,280.27h4.1l0-10h-3.24v-1.45a10.35,10.35,0,0,0,3.83-1.12h1.68l0,12.63h3.65v1.86l-10,0Z"/><path d="M419.47,400.64h-.07l-.21,1.23H417.4l.05-16.12h2.26V390l-.1,2h.07a5.23,5.23,0,0,1,3.55-1.57c2.93,0,4.57,2.23,4.56,5.66,0,3.8-2.38,6-5,6A5.13,5.13,0,0,1,419.47,400.64Zm6-4.46c0-2.33-.83-3.79-2.83-3.79a4.21,4.21,0,0,0-2.94,1.47l0,5.26a4.16,4.16,0,0,0,2.71,1.14C424.11,400.27,425.45,398.81,425.46,396.18Z"/><path d="M430.63,400.58c4.72-4.1,7.44-6.61,7.44-8.94,0-1.59-.95-2.65-2.93-2.65a4.79,4.79,0,0,0-3.33,1.64l-1.27-1.26a6.49,6.49,0,0,1,4.89-2.21c2.95,0,4.82,1.75,4.82,4.37s-2.69,5.32-6.34,8.59c.89-.07,1.85-.12,2.69-.12H441v1.93l-10.38,0Z"/><path d="M419.47,520.42h-.07l-.21,1.23H417.4l.05-16.12h2.26v4.27l-.1,2.05h.07a5.14,5.14,0,0,1,3.55-1.57c2.93,0,4.57,2.23,4.56,5.65,0,3.81-2.38,6-5,6A5.13,5.13,0,0,1,419.47,520.42Zm6-4.46c0-2.33-.83-3.79-2.83-3.8a4.23,4.23,0,0,0-2.94,1.48l0,5.25a4.18,4.18,0,0,0,2.71,1.15C424.11,520.05,425.45,518.58,425.46,516Z"/><path d="M430.26,519.91l1.12-1.46a5.76,5.76,0,0,0,4,1.66c1.87,0,3.26-.91,3.27-2.39s-1.33-2.68-5-2.69v-1.67c3.28,0,4.53-1.07,4.53-2.5s-1.1-2.09-2.73-2.1a5.36,5.36,0,0,0-3.45,1.39l-1.17-1.4a7.16,7.16,0,0,1,4.71-1.81c2.84,0,4.94,1.37,4.93,3.77,0,1.68-1.24,2.78-3,3.38v.09c1.9.43,3.49,1.68,3.49,3.65,0,2.6-2.46,4.15-5.39,4.14A7.13,7.13,0,0,1,430.26,519.91Z"/><path d="M116,452h1.87l.2,2.58h.05a5.65,5.65,0,0,1,4.85-2.83,4.66,4.66,0,0,1,2.18.46l-.51,1.92a5.59,5.59,0,0,0-2-.36c-1.59,0-3.13.8-4.36,3l0,6.3H116Z"/><path d="M127.7,461.36l1.11-1.46a5.76,5.76,0,0,0,4,1.66c1.87,0,3.26-.91,3.27-2.39s-1.33-2.68-5-2.69v-1.67c3.28,0,4.53-1.07,4.54-2.49s-1.11-2.1-2.74-2.11a5.27,5.27,0,0,0-3.44,1.4l-1.18-1.41a7.16,7.16,0,0,1,4.71-1.81c2.84,0,4.94,1.37,4.93,3.77,0,1.68-1.24,2.78-3,3.38v.09c1.9.43,3.49,1.69,3.49,3.65,0,2.6-2.46,4.15-5.39,4.14A7.09,7.09,0,0,1,127.7,461.36Z"/><rect class="cls-4" x="710.57" y="29.07" width="151.51" height="43.93"/><path d="M998.77,44.67H1001l.22,1.64h.09a6.93,6.93,0,0,1,4.52-2c3.59,0,5.57,2.72,5.57,6.93,0,4.62-2.89,7.32-6.1,7.32a6,6,0,0,1-3.86-1.68h-.07l.13,2.47v4.42h-2.76Zm9.83,6.6c0-2.85-1-4.63-3.48-4.63a5.14,5.14,0,0,0-3.59,1.82v6.42a5.12,5.12,0,0,0,3.27,1.39C1007,56.27,1008.6,54.48,1008.6,51.27Z"/><path d="M1014.8,51.43a6.86,6.86,0,0,1,7-7.1c4,0,6.25,2.62,6.25,6.41a9.53,9.53,0,0,1-.13,1.51h-11.17v-2h9.45l-.6.67c0-2.94-1.42-4.41-3.73-4.41s-4.32,1.75-4.32,5,2.09,5,5,5a7.46,7.46,0,0,0,4-1.19l1,1.75a9.57,9.57,0,0,1-5.28,1.61C1018.06,58.58,1014.8,56,1014.8,51.43Z"/><path d="M1031.48,51.43a6.85,6.85,0,0,1,7-7.1c4,0,6.26,2.62,6.26,6.41a9.53,9.53,0,0,1-.13,1.51H1033.4v-2h9.44l-.59.67c0-2.94-1.43-4.41-3.73-4.41s-4.32,1.75-4.32,5,2.09,5,5,5a7.44,7.44,0,0,0,4-1.19l1,1.75a9.61,9.61,0,0,1-5.29,1.61C1034.74,58.58,1031.48,56,1031.48,51.43Z"/><path d="M1050.18,44.67h2.29l.25,3.15h.06a6.94,6.94,0,0,1,5.92-3.49,5.69,5.69,0,0,1,2.66.56l-.61,2.35a7,7,0,0,0-2.48-.43c-2,0-3.82,1-5.33,3.73v7.7h-2.76Z"/><path class="cls-2" d="M1110.32,76.16H952.5V25.91h157.82ZM958.81,69.84H1104V32.23H958.81Z"/><path d="M735.94,51.48c0-4.55,3.52-7.14,7.64-7.14a7,7,0,0,1,5,1.94L747.23,48a5.43,5.43,0,0,0-3.53-1.42,4.65,4.65,0,0,0-4.93,4.87,4.59,4.59,0,0,0,4.86,4.82,6.41,6.41,0,0,0,4-1.59l1.19,1.78a8.27,8.27,0,0,1-5.44,2.09C739.15,58.58,735.94,56,735.94,51.48Z"/><path d="M757,53.49V40.75h-4.67V38.54h7.44V53.66a2.33,2.33,0,0,0,2.55,2.64,6,6,0,0,0,2.43-.57l.67,2.06a9,9,0,0,1-3.74.79C758.67,58.58,757,56.77,757,53.49Z"/><path d="M775.65,46.88h-6.07V44.67h8.83V58.25h-2.76Zm-.9-6.83a2.06,2.06,0,0,1,4.12,0,2.06,2.06,0,0,1-4.12,0Z"/><path d="M785.63,51.43a6.84,6.84,0,0,1,7-7.09c4,0,6.25,2.61,6.25,6.4a11.11,11.11,0,0,1-.12,1.51H787.55v-2H797l-.6.67c0-2.94-1.42-4.41-3.72-4.41s-4.33,1.75-4.33,5,2.1,5,5,5a7.44,7.44,0,0,0,4-1.19l1,1.75A9.61,9.61,0,0,1,793,58.58C788.88,58.58,785.63,56,785.63,51.43Z"/><path d="M802.94,44.67h2.27l.22,2.16h.11a6.9,6.9,0,0,1,5-2.49c3.17,0,4.62,1.95,4.62,5.48v8.43h-2.77V50.18c0-2.36-.79-3.46-2.81-3.46-1.47,0-2.47.73-3.87,2.16v9.37h-2.77Z"/><path d="M822.68,52.87v-6h-3.74V44.81l3.85-.14.36-4.31h2.3v4.31h6.4v2.21h-6.4v6c0,2.34.82,3.47,3.28,3.47a8.68,8.68,0,0,0,3.09-.58l.57,2a12.69,12.69,0,0,1-4.3.79C824,58.58,822.68,56.28,822.68,52.87Z"/></g></svg>